<?xml version="1.0" standalone="no"?>
<!DOCTYPE svg PUBLIC "-//W3C//DTD SVG 1.1//EN" "http://www.w3.org/Graphics/SVG/1.1/DTD/svg11.dtd" >
<svg xmlns="http://www.w3.org/2000/svg">
<metadata>Generated by IcoMoon</metadata>
<defs>
<font id="icomoon" horiz-adv-x="1024">
<font-face units-per-em="1024" ascent="960" descent="-64" />
<missing-glyph horiz-adv-x="1024" />
<glyph unicode="&#x20;" horiz-adv-x="512" d="" />
<glyph unicode="&#xe900;" glyph-name="uniE900" d="M512 945.664c-274.184 0-496.485-222.301-496.485-496.516s222.301-496.454 496.485-496.454 496.485 222.239 496.485 496.454-222.301 496.516-496.485 496.516zM760.242 392.083h-496.485v114.192h496.485v-114.192z" />
<glyph unicode="&#xe901;" glyph-name="acquereurt-enrgistre" d="M400.384 671.263c-12.412-5.306-24.235-11.729-35.157-19.022-10.923-7.509-21.504-15.981-30.906-25.445v0-0.062c-9.402-9.464-17.873-19.859-25.445-30.844-7.261-10.985-13.933-22.714-19.084-35.157-3.631-8.875 0.621-19.177 9.712-23.024 8.782-3.786 19.084 0.465 22.714 9.309 4.251 10.24 9.712 20.015 16.074 29.106 6.051 9.309 13.343 18.029 21.225 25.755v-0.062c7.882 7.944 16.353 15.081 25.445 21.225 9.402 6.206 19.084 11.605 29.106 15.763 9.092 3.879 13.343 14.181 9.402 23.024-3.693 8.999-13.995 13.157-23.087 9.433v0zM854.947 147.596v0l-126.976 127.224c20.604 24.731 37.578 52.472 49.711 82.354 15.763 37.888 24.545 79.469 24.545 122.725 0 42.791-8.471 83.72-23.924 121.204l-0.621 1.676c-15.763 38.478-39.098 73.263-68.174 102.648l-1.52 1.427c-29.386 29.479-64.853 53.403-103.952 69.632h-0.31c-37.888 15.67-79.096 24.39-122.415 24.39-88.778 0-169.084-35.995-226.956-94.022-29.386-29.479-53.341-64.76-69.694-104.231-15.763-37.95-24.235-79.407-24.235-122.725 0-42.667 8.471-83.565 23.645-121.080l0.621-1.645c16.353-39.346 40.308-74.597 69.694-104.169v0c29.696-29.51 64.853-53.341 103.952-69.632v0.124l0.31-0.124c37.888-15.639 79.407-24.297 122.725-24.297s84.837 8.72 122.725 24.297c30.006 12.536 57.561 29.386 82.416 49.866l127.286-127.286c11.512-11.388 30.006-11.388 41.519 0.248 11.14 11.419 11.14 30.006-0.372 41.394v0zM666.469 294.772v0-0.062l-0.31-0.496c-24.235-23.986-52.72-43.287-84.837-56.413-30.596-12.722-64.543-19.89-100.011-19.89-35.747 0-69.384 6.982-100.29 19.828v0.062c-32.116 13.281-60.912 32.799-85.147 56.91v0.062c-23.924 24.173-43.629 53.093-56.972 84.961l-0.621 1.458c-12.133 30.317-19.084 63.736-19.084 98.738 0 35.747 6.982 69.694 19.704 100.383 13.343 31.806 32.737 60.695 56.972 84.93 47.569 47.414 113.043 76.738 185.468 76.738 35.468 0 69.384-7.044 100.29-19.704l-0.31-0.062c32.116-13.25 60.912-32.644 85.147-56.972l1.52-1.365c23.645-23.8 42.418-52.193 55.451-83.72l0.621-1.427c12.412-30.379 19.084-63.643 19.084-98.8 0-35.53-6.982-69.446-19.704-100.197-13.343-32.116-32.737-60.912-56.972-84.961v0zM671.31 497.648v0c-9.992 0-17.873-7.944-17.873-17.718 0-22.435-4.251-45.087-13.033-66.064l-0.31-0.652c-8.192-20.015-20.604-38.664-36.957-55.079-16.663-16.415-35.747-29.106-55.761-37.454-21.225-8.657-43.629-13.095-66.064-13.095-9.712 0-17.873-7.82-17.873-17.563s8.192-17.687 17.873-17.687c26.965 0 53.931 5.275 79.407 15.825 24.545 10.116 47.569 25.228 67.584 45.087 19.394 19.518 34.537 42.294 44.56 66.56l0.31 0.621c10.612 25.476 15.763 52.596 15.763 79.562-0.062 9.681-7.944 17.656-17.625 17.656v0z" />
<glyph unicode="&#xe902;" glyph-name="action-automatique" d="M1002.124 527.996h-155.089c6.051-25.786 9.216-52.348 9.216-79.376 0-46.483-9.092-91.508-27.027-133.772-17.346-40.96-42.17-77.762-73.821-109.382-31.682-31.589-68.484-56.413-109.444-73.759-42.387-17.873-87.412-26.903-133.958-26.903s-91.632 9.030-133.927 26.903c-40.96 17.346-77.824 42.17-109.506 73.759-31.651 31.651-56.475 68.422-73.821 109.382-17.873 42.232-26.965 87.288-26.965 133.772 0 46.514 9.092 91.508 26.965 133.834 17.346 40.929 42.17 77.731 73.821 109.32 31.682 31.651 68.546 56.475 109.506 73.79 42.294 17.904 87.381 26.965 133.927 26.965s91.57-9.061 133.927-26.934c17.998-7.602 35.157-16.694 51.51-27.12l-97.156-97.001h304.531v304.19l-98.025-97.932c-82.416 60.912-184.413 96.908-294.788 96.908-274.246 0-496.485-222.053-496.485-495.988 0-273.873 222.239-495.926 496.485-495.926 274.184 0 496.485 222.053 496.485 495.926 0 27.027-2.172 53.496-6.361 79.344z" />
<glyph unicode="&#xe903;" glyph-name="uniE903" d="M1024.010 448.005c0-282.773-229.233-512.005-512.005-512.005s-512.005 229.233-512.005 512.005c0 282.773 229.233 512.005 512.005 512.005s512.005-229.233 512.005-512.005z" />
<glyph unicode="&#xe904;" glyph-name="uniE904" d="M377.724 428.696c27.197-68.975 74.493-130.612 134.416-130.612s107.209 61.648 134.416 130.612c23.664-2.411 49.198 37.777 41.165 66.564-2.318 8.48-9.499 9.779-17.251 8.387 18.145 78.744 14.944 146.627-47.701 167.537-12.907 83.202-244.794 60.65-272.885-69.432-6.578-30.398-3.003-67.821 3.897-98.105-7.711 1.393-14.861 0.083-17.21-8.387-8.054-28.787 17.813-68.902 41.154-66.564zM386.693 579.158c107.697-36.197 154.016 7.15 199.244 38.151-12.377-18.821-27.561-40.593-34.43-47.753 30.491 17.044 49.239 32.549 59.31 48.263 10.476-48.959 39.18-85.062 35.199-109.776-14.082-78.089-61.825-190.39-133.886-190.39-55.371 0-95.278 72.155-113.101 116.364-8.813 21.907-16.441 46.984-20.91 71.999v0.042c-2.505 18.114 6.62 45.955 8.574 73.101z" />
<glyph unicode="&#xe905;" glyph-name="uniE905" d="M716.040 2.013v-23.102c41.871 18.353 80.801 42.1 115.938 70.43-7.264 52.96-17.615 100.62-32.071 129.719-26.875 54.415-107.583 60.817-161.572 81.757-18.062-72.196-51.754-159.036-85.208-225.818l-21.803 136.952 7.472 29.452-26.667 17.657-26.636-17.657 7.472-29.452-21.803-136.952c-15.183 30.242-30.367 64.651-44.168 99.923-1.621 4.136-3.211 8.304-4.791 12.461-0.686 1.788-1.341 3.575-1.985 5.321-1.299 3.43-2.557 6.817-3.772 10.226-0.769 2.068-1.507 4.157-2.276 6.256-1.091 3.087-2.193 6.194-3.253 9.301-0.811 2.255-1.58 4.51-2.359 6.776-0.977 2.858-1.954 5.747-2.92 8.626-0.811 2.38-1.58 4.749-2.359 7.129-0.894 2.744-1.746 5.456-2.64 8.158-0.727 2.453-1.538 4.916-2.276 7.347-0.811 2.598-1.58 5.196-2.359 7.774-0.727 2.494-1.507 4.978-2.193 7.431-0.727 2.515-1.465 5.009-2.151 7.535-0.686 2.453-1.424 4.936-2.068 7.368-0.686 2.598-1.341 5.113-1.985 7.649-0.572 2.172-1.174 4.386-1.704 6.537-0.083-0.021-0.166-0.062-0.239-0.083-3.045-1.174-6.215-2.318-9.416-3.409-0.208-0.083-0.447-0.166-0.655-0.239-3.253-1.091-6.578-2.151-9.904-3.19-52.201-16.202-117.684-26.875-141.358-74.836-14.633-29.452-25.067-77.86-32.331-131.569 87.473-69.723 198.226-111.511 318.799-111.511 67.79 0 132.452 13.292 191.668 37.226h-79.242v28.797h92.815z" />
<glyph unicode="&#xe906;" glyph-name="uniE906" d="M506.414 503.823c0 2.089-0.083 3.918-0.364 5.643h11.827c-0.218-1.725-0.364-3.554-0.364-5.643 0-31.853 31.739-31.853 46.974-31.853 15.163 0 46.901 0.073 46.901 31.957 0 31.957-31.739 32.030-46.901 32.030-10.798 0-29.722-0.145-39.949-11.245h-25.139c-10.205 11.089-29.151 11.245-39.876 11.245-15.235 0-46.901-0.073-46.901-31.957 0-31.957 31.666-31.957 46.901-31.957s46.891-0.073 46.891 31.78v0zM564.414 520.856c27.135 0 31.946-5.466 31.946-16.929 0-11.473-4.812-16.94-31.946-16.94-27.145 0-31.884 5.477-31.884 16.94-0.010 11.536 4.729 16.929 31.884 16.929v0zM427.577 503.927c0 11.463 4.801 16.929 31.946 16.929s31.874-5.466 31.874-16.929c0-11.473-4.729-16.94-31.874-16.94s-31.946 5.466-31.946 16.94v0z" />
<glyph unicode="&#xe907;" glyph-name="uniE907" d="M1024.010 447.995c0-282.773-229.233-512.005-512.005-512.005s-512.005 229.233-512.005 512.005c0 282.773 229.233 512.005 512.005 512.005s512.005-229.233 512.005-512.005z" />
<glyph unicode="&#xe908;" glyph-name="uniE908" d="M174.333 511.316c0-39.294 26.958-72.020 63.311-81.456v-277.323h-42.214c-11.619 0-21.097-9.447-21.097-21.097 0-11.671 9.478-21.107 21.097-21.107h633.119c11.702 0 21.107 9.436 21.107 21.107 0 11.65-9.405 21.097-21.107 21.097h-42.214v277.323c36.353 9.436 63.321 42.162 63.321 81.456v21.086h-675.323v-21.086zM596.413 426.888c46.662 0 84.418 37.808 84.418 84.428 0-39.294 26.958-72.020 63.311-81.456v-277.323h-316.554v274.35c46.652 0 84.418 37.808 84.418 84.428 0-46.621 37.829-84.428 84.408-84.428v0zM406.47 429.86v-277.323h-126.611v277.323c36.353 9.436 63.311 42.162 63.311 81.456 0-39.294 26.948-72.020 63.3-81.456v0zM765.238 722.356h-506.497l-84.408-168.836h675.323l-84.418 168.836zM325.066 675.434l-42.214-84.408c-1.902-3.71-5.602-5.851-9.478-5.851-1.569 0-3.18 0.322-4.708 1.112-5.186 2.588-7.327 8.938-4.697 14.134l42.214 84.408c2.64 5.196 8.948 7.296 14.134 4.749 5.238-2.598 7.296-8.938 4.749-14.144v0zM434.322 677.512l-36.114-87.203c-1.621-3.835-5.175-6.246-9.041-6.516-1.559-0.114-3.19 0.104-4.77 0.779-5.363 2.224-7.95 8.407-5.685 13.76l36.103 87.203c2.276 5.383 8.449 7.919 13.77 5.747 5.414-2.214 7.909-8.397 5.737-13.77v0zM589.668 677.512c-2.172 5.373 0.322 11.546 5.737 13.77 5.331 2.172 11.504-0.364 13.77-5.747l36.103-87.203c2.276-5.363-0.322-11.536-5.685-13.76-1.569-0.676-3.211-0.894-4.77-0.779-3.866 0.27-7.42 2.681-9.041 6.516l-36.114 87.203zM522.543 595.724c0-5.851-4.697-10.559-10.548-10.559-5.82 0-10.559 4.697-10.559 10.559v84.418c0 5.851 4.739 10.548 10.559 10.548 5.851 0 10.548-4.687 10.548-10.548v-84.418zM766.485 586.287c-1.497-0.779-3.055-1.112-4.697-1.112-3.876 0-7.586 2.141-9.395 5.851l-42.214 84.418c-2.65 5.196-0.499 11.536 4.697 14.134 5.103 2.598 11.536 0.499 14.175-4.739l42.214-84.418c2.557-5.196 0.499-11.546-4.781-14.134v0zM353.718 275.948v48.647c-6.184 3.71-10.559 10.143-10.559 17.896 0 11.65 9.488 21.097 21.097 21.097 11.712 0 21.107-9.447 21.107-21.097 0-7.753-4.334-14.175-10.548-17.896v-48.647c6.215-3.7 10.548-10.133 10.548-17.885 0-11.66-9.395-21.107-21.107-21.107-11.619 0-21.097 9.447-21.097 21.107 0.010 7.753 4.375 14.186 10.559 17.885v0zM258.741 764.549c0 11.66 9.478 21.107 21.107 21.107h464.283c11.702 0 21.097-9.447 21.097-21.107s-9.395-21.097-21.097-21.097h-464.273c-11.629 0-21.117 9.436-21.117 21.097v0z" />
<glyph unicode="&#xe909;" glyph-name="uniE909" d="M529.724 233.193h-87.931v59.351h87.931v-59.351zM453.329 244.739h64.849v36.27h-64.849v-36.27z" />
<glyph unicode="&#xe90a;" glyph-name="uniE90A" d="M629.876 233.193h-87.931v59.351h87.931v-59.351zM553.492 244.739h64.849v36.27h-64.849v-36.27z" />
<glyph unicode="&#xe90b;" glyph-name="uniE90B" d="M730.039 233.193h-87.931v59.351h87.931v-59.351zM653.644 244.739h64.849v36.27h-64.849v-36.27z" />
<glyph unicode="&#xe90c;" glyph-name="uniE90C" d="M529.724 304.090h-87.931v59.362h87.931v-59.362zM453.329 315.626h64.849v36.27h-64.849v-36.27z" />
<glyph unicode="&#xe90d;" glyph-name="uniE90D" d="M629.876 304.090h-87.931v59.362h87.931v-59.362zM553.492 315.626h64.849v36.27h-64.849v-36.27z" />
<glyph unicode="&#xe90e;" glyph-name="uniE90E" d="M730.039 304.090h-87.931v59.362h87.931v-59.362zM653.644 315.626h64.849v36.27h-64.849v-36.27z" />
<glyph unicode="&#xe90f;" glyph-name="uniE90F" d="M1024.010 447.995c0-282.773-229.233-512.005-512.005-512.005s-512.005 229.233-512.005 512.005c0 282.773 229.233 512.005 512.005 512.005s512.005-229.233 512.005-512.005z" />
<glyph unicode="&#xe910;" glyph-name="uniE910" d="M922.715 392.832v37.829l-105.307 78.338 82.714-78.338h-776.389l82.849 78.338-105.286-78.349v-37.829h76.364v-227.792h-18.914v-21.45h-28.361v-21.024h763.118v21.024h-28.236v21.45h-18.893v227.803h76.343z" />
<glyph unicode="&#xe911;" glyph-name="uniE911" d="M509.106 790.821c0 1.081-0.042 2.027-0.197 2.92h6.121c-0.114-0.894-0.197-1.839-0.197-2.92 0-16.472 16.41-16.472 24.287-16.472 7.836 0 24.246 0.042 24.246 16.524 0 16.514-16.41 16.555-24.246 16.555-5.581 0-15.37-0.083-20.65-5.82h-13.001c-5.269 5.737-15.059 5.82-20.598 5.82-7.888 0-24.246-0.042-24.246-16.524 0-16.514 16.358-16.514 24.246-16.514 7.867 0 24.235-0.042 24.235 16.43v0zM539.088 799.624c14.030 0 16.524-2.827 16.524-8.75 0-5.934-2.494-8.761-16.524-8.761-14.040 0-16.482 2.827-16.482 8.761 0 5.965 2.442 8.75 16.482 8.75v0zM468.346 790.873c0 5.924 2.484 8.75 16.524 8.75 14.030 0 16.472-2.827 16.472-8.75 0-5.934-2.442-8.761-16.472-8.761s-16.524 2.827-16.524 8.761v0z" />
<glyph unicode="&#xe912;" glyph-name="uniE912" d="M579.847 498.887h-88.918l-53.667-49.624h149.485l-6.901 49.624z" />
<glyph unicode="&#xe913;" glyph-name="uniE913" d="M444.787 750.592c13.604-34.482 37.247-65.317 67.208-65.317s53.615 30.824 67.208 65.317c11.837-1.206 24.599 18.883 20.577 33.277-1.154 4.24-4.749 4.895-8.626 4.188 9.073 39.377 7.472 73.319-23.851 83.774-6.454 41.601-122.402 30.325-136.443-34.711-3.284-15.194-1.507-33.911 1.954-49.052-3.856 0.696-7.431 0.042-8.605-4.188-4.022-14.404 8.906-34.461 20.577-33.287zM449.276 825.813c53.854-18.104 77.019 3.575 99.622 19.070-6.194-9.405-13.78-20.296-17.21-23.871 15.246 8.522 24.62 16.275 29.66 24.131 5.238-24.474 19.59-42.526 17.594-54.883-7.046-39.044-30.918-95.195-66.948-95.195-27.686 0-47.639 36.083-56.545 58.187-4.406 10.954-8.22 23.487-10.455 35.989v0.021c-1.257 9.062 3.305 22.978 4.282 36.55z" />
<glyph unicode="&#xe914;" glyph-name="uniE914" d="M677.1 508.718c-3.014 44.563-9.374 93.22-21.211 117.061-13.437 27.207-53.791 30.408-80.781 40.884-9.031-36.103-25.877-79.513-42.609-112.914l-10.902 68.476 3.731 14.726-13.334 8.823-13.313-8.823 3.731-14.726-10.902-68.476c-7.586 15.131-15.183 32.331-22.084 49.967-0.811 2.068-1.6 4.147-2.39 6.235-0.343 0.883-0.665 1.777-0.998 2.66-0.655 1.715-1.278 3.409-1.891 5.113-0.385 1.039-0.748 2.078-1.133 3.128-0.551 1.538-1.091 3.097-1.621 4.645-0.405 1.133-0.79 2.255-1.174 3.388-0.488 1.434-0.977 2.879-1.465 4.313-0.405 1.195-0.79 2.38-1.174 3.565-0.447 1.372-0.873 2.723-1.32 4.084-0.364 1.226-0.769 2.453-1.133 3.679-0.405 1.299-0.79 2.598-1.174 3.887-0.364 1.247-0.748 2.484-1.091 3.71-0.364 1.257-0.727 2.505-1.081 3.762-0.343 1.237-0.707 2.473-1.039 3.689-0.343 1.299-0.665 2.557-0.998 3.824-0.281 1.081-0.592 2.193-0.852 3.274-0.042-0.010-0.083-0.031-0.125-0.042-1.517-0.592-3.107-1.164-4.708-1.715-0.104-0.031-0.218-0.073-0.322-0.114-1.621-0.551-3.284-1.081-4.957-1.6-26.106-8.096-58.842-13.427-70.679-37.413-11.847-23.851-18.197-72.508-21.211-117.061h330.21zM567.553 537.245h46.402v-14.404h-46.402v14.404z" />
<glyph unicode="&#xe915;" glyph-name="annuler" d="M1003.52 780.769l-159.868 159.899-331.652-331.652-331.652 331.683-159.868-159.868 331.652-331.683-331.652-331.59 159.868-159.899 331.652 331.652 331.652-331.59 159.868 159.837-331.59 331.59z" />
<glyph unicode="&#xe916;" glyph-name="appartement" d="M112.981 945.043v-991.697h474.267v991.697h-474.267zM479.76 77.281h-259.289v65.753h259.258v-65.753zM479.76 238.67h-259.289v81.982h259.258v-81.982zM479.76 416.287h-259.289v65.753h259.258v-65.753zM479.76 577.676h-259.289v82.013h259.258v-82.013zM479.76 755.324h-259.289v65.722h259.258v-65.722zM624.081 603.245v-649.899h286.937v649.899h-286.937zM813.832 77.281h-92.439v82.044h92.439v-82.044zM813.832 254.898h-92.439v82.013h92.439v-82.013zM813.832 432.547h-92.439v82.013h92.439v-82.013z" />
<glyph unicode="&#xe917;" glyph-name="autres-types" d="M15.515 256.357h456.797v-227.452h-456.797v227.452zM551.719 256.357h456.766v-227.452h-456.766v227.452zM15.515 562.905h188.664v-227.452h-188.664v227.452zM283.648 562.905h456.766v-227.452h-456.766v227.452zM15.515 869.454h456.797v-227.452h-456.797v227.452z" />
<glyph unicode="&#xe918;" glyph-name="bien-actif" d="M724.899 410.267c0 16.167 13.002 29.324 29.324 29.324 16.291 0 29.324-13.157 29.324-29.324v-287.744c0-16.167-13.033-29.324-29.324-29.324h-484.476c-16.291 0-29.634 13.157-29.634 29.324v287.744c0 16.167 13.343 29.324 29.634 29.324 16.012 0 29.324-13.157 29.324-29.324v-258.265h94.363v290.040c0 9.806 7.851 17.687 17.842 17.687h201.387c9.681 0 17.532-7.882 17.532-17.687v-290.040h94.673v258.265h0.031zM428.808 152.002v0h166.043v272.477h-166.043v-272.477zM179.945 402.23v0l332.055 332.086 331.745-332.055c11.45-11.481 30.255-11.481 41.736 0 11.512 11.481 11.512 30.099 0 41.581l-352.939 352.628c-11.45 11.636-29.913 11.636-41.425 0l-352.597-352.659c-11.512-11.481-11.512-30.099 0-41.581 11.171-11.481 29.944-11.481 41.425 0v0z" />
<glyph unicode="&#xe919;" glyph-name="bien-archive" d="M895.162 657.61l-174.608 174.545c-5.585 5.43-13.033 8.844-21.38 8.844h-548.895c-16.446 0-30.068-13.498-30.068-30.255v-723.254c0-16.756 13.622-30.224 30.068-30.224h723.409c16.725 0 30.13 13.467 30.13 30.224v548.895c0 7.602-2.793 15.329-8.657 21.225v0zM717.079 750.173v0l95.884-95.791h-95.884v95.791zM295.408 117.651v0h-115.029v662.9h115.029v-662.9zM843.652 117.651v0h-487.796v60.726h295.843c9.93 0 17.998 8.254 17.998 18.184v221.215c0 9.93-8.068 17.998-17.998 17.998-9.868 0-17.998-8.068-17.998-17.998v-203.093h-89.864v182.489c0 9.744-8.13 17.967-18.029 17.967h-119.374c-9.93 0-18.029-8.223-18.029-17.967v-182.489h-32.551v333.948l110.375 110.375 256.776-256.745c7.137-7.106 18.556-7.106 25.755 0 6.796 7.013 6.796 18.494 0 25.445l-269.808 269.622c-7.106 7.106-18.587 7.106-25.414 0l-97.683-97.528v180.752h325.291v-144.167c0-10.085 8.068-18.122 17.998-18.122h144.477v-500.612h0.031zM424.712 216.204v0 162.63h83.099v-162.63h-83.099z" />
<glyph unicode="&#xe91a;" glyph-name="biens-associes" d="M702.557 639.488v306.176h-687.042v-686.794h305.959v-306.176h687.011v686.794h-305.928zM142.46 385.784v432.966h433.152v-179.262h-254.138v-253.704h-179.014zM881.54 79.608h-433.090v432.966h433.090v-432.966z" />
<glyph unicode="&#xe91b;" glyph-name="bien-vendu" d="M834.219 198.33l-87.288 151.211c38.478 49.835 61.223 112.485 61.223 180.441 0 81.827-33.016 155.896-86.668 209.455-53.651 53.589-127.566 86.761-209.424 86.761-81.827 0-156.051-33.171-209.392-86.761-53.651-53.558-86.978-127.628-86.978-209.455 0-67.956 23.024-130.607 61.502-180.441l-87.288-151.211c-3.041-4.034-3.941-9.309-2.731-14.46 2.731-9.495 12.133-15.019 21.814-12.598l117.574 31.682 31.527-117.667c1.21-4.468 3.941-8.409 8.192-10.83 8.471-4.779 19.394-1.924 24.235 6.485l89.088 154.5c10.612-1.148 21.504-1.831 32.427-1.831s21.845 0.652 32.427 1.831l89.088-154.407c4.841-8.471 15.453-11.357 23.924-6.578 4.251 2.42 6.982 6.485 8.192 10.83l31.806 117.667 117.574-31.682c9.402-2.42 19.084 3.134 21.504 12.598 1.614 5.151 0.403 10.426-2.327 14.46v0zM381.176 135.463v0l-24.855 93.712c-2.731 9.34-12.412 14.926-21.814 12.412l-0.31-0.124-93.339-24.948 60.602 105.007 1.21-1.055c37.888-37.888 86.047-65.66 140.009-78.631l-61.502-106.372zM512.062 292.662v0c-65.443 0-124.835 26.562-167.874 69.446-43.039 42.977-69.384 102.338-69.384 167.874 0 65.443 26.376 124.835 69.384 167.781 43.039 42.977 102.431 69.539 167.874 69.539 65.474 0 124.866-26.562 167.905-69.539 42.729-42.946 69.384-102.338 69.384-167.781 0-65.536-26.655-124.897-69.384-167.874-43.039-42.853-102.431-69.446-167.905-69.446v0zM689.959 241.462v0l-0.621 0.124c-9.402 2.513-19.084-3.103-21.504-12.412l-25.166-93.712-61.223 106.372c53.931 12.971 102.121 40.743 140.009 78.631l0.9 1.055 60.912-105.007-93.308 24.948zM636.928 654.848v0c-32.116 31.806-76.366 51.665-124.866 51.665-48.78 0-93.029-19.859-124.835-51.665-31.806-32.054-51.821-76.148-51.821-124.835 0-48.718 20.015-92.967 51.821-124.773 31.806-32.023 76.055-51.728 124.835-51.728 48.5 0 92.75 19.704 124.866 51.728 31.806 31.806 51.51 76.055 51.51 124.773 0.031 48.687-19.673 92.781-51.51 124.835v0zM611.793 430.158v0c-25.445-25.538-60.912-41.301-99.7-41.301-39.098 0-74.256 15.763-99.7 41.301-25.755 25.6-41.519 60.819-41.519 99.856 0 39.005 15.763 74.256 41.519 99.762 25.445 25.445 60.602 41.363 99.7 41.363 38.788 0 74.256-15.919 99.7-41.363 25.445-25.507 41.208-60.757 41.208-99.762 0-39.036-15.763-74.256-41.208-99.856v0z" />
<glyph unicode="&#xe91c;" glyph-name="bubble" d="M1008.485 945.664h-992.97v-762.601h192.016v-230.369l375.001 230.369h425.953v762.601z" />
<glyph unicode="&#xe91d;" glyph-name="calendrier" d="M813.428 802.552c-99.297 0-179.79-80.431-179.79-179.665s80.493-179.728 179.79-179.728c99.235 0 179.696 80.493 179.696 179.728s-80.462 179.665-179.696 179.665zM914.897 622.856c0-11.605-9.371-21.070-21.039-21.070h-59.454v-59.423c0-11.636-9.402-21.101-21.008-21.101-11.667 0-21.039 9.464-21.039 21.101v59.423h-59.609c-11.574 0-21.039 9.464-21.039 21.070 0 11.636 9.464 21.008 21.039 21.008h59.609v59.485c0 11.636 9.371 21.008 21.039 21.008 11.605 0 21.008-9.371 21.008-21.008v-59.516h59.454c11.698 0.031 21.039-9.34 21.039-20.976zM661.194 783.934v62.433h-90.019v-127.255h42.574c11.792 24.452 27.896 46.39 47.445 64.822zM195.119 846.367h90.019v-127.255h-90.019v127.255zM735.325 415.325v-273.222h-614.4v451.274h472.685c-1.272 9.712-2.172 19.487-2.172 29.51 0 21.473 3.196 42.17 8.906 61.812h-63.612v91.477h-217.181v-91.477h-158.906v91.477h-129.769v-724.185h794.438v349.494c-3.972-0.217-7.851-0.621-11.885-0.621-27.555 0-53.776 5.306-78.103 14.46zM298.48 361.239c-32.83-24.359-55.234-45.49-67.212-63.426-11.916-17.904-19.084-36.988-21.411-57.313h205.576v55.886h-107.055c6.33 6.175 11.792 11.14 16.446 14.988 4.655 3.786 13.871 10.457 27.679 20.046 23.242 16.353 39.253 31.465 48.004 45.118 8.844 13.653 13.25 28.020 13.25 43.132 0 14.088-3.817 26.872-11.481 38.26-7.758 11.388-18.277 19.828-31.62 25.352-13.467 5.492-32.24 8.254-56.289 8.254-23.18 0-41.208-2.917-54.303-8.688-13.033-5.834-23.18-14.088-30.348-24.917-7.168-10.861-12.102-25.879-14.801-45.211l68.577-5.554c1.924 13.933 5.71 23.645 11.202 29.137 5.585 5.461 12.691 8.223 21.411 8.223 8.44 0 15.422-2.669 20.945-7.975 5.616-5.337 8.378-11.729 8.378-19.301 0-6.951-2.824-14.305-8.409-22-5.616-7.727-18.432-19.084-38.54-34.009zM545.358 278.016c-8.782 0-16.043 2.669-21.69 8.006-5.71 5.337-9.837 14.864-12.505 28.703l-68.453-9.061c4.468-15.422 10.861-28.176 19.239-38.291s18.991-17.873 31.93-23.18c12.94-5.244 30.689-7.913 53.124-7.913 22.993 0 41.519 3.6 55.668 10.736s24.917 17.284 32.489 30.441c7.509 13.25 11.233 26.934 11.233 41.363 0 11.419-2.265 21.287-6.827 29.51-4.53 8.254-10.892 14.926-19.053 19.984-5.058 3.165-12.319 5.896-21.876 8.254 11.792 6.516 20.604 14.057 26.407 22.745 5.834 8.595 8.751 18.308 8.751 28.951 0 18.153-7.168 33.233-21.504 45.273-14.367 12.009-37.64 18.029-69.818 18.029-28.051 0-49.773-5.554-65.102-16.539-15.267-10.985-25.6-26.81-30.999-47.445l64.791-11.636c1.8 12.288 5.182 20.852 10.271 25.693 5.027 4.872 11.574 7.292 19.735 7.292 7.789 0 13.995-2.203 18.463-6.734 4.53-4.53 6.765-10.457 6.765-17.967 0-7.851-3.041-14.646-9.030-20.356-5.989-5.772-13.498-8.564-22.466-8.564-2.141 0-5.089 0.248-8.906 0.807l-3.506-49.028c9.371 2.731 16.849 4.096 22.218 4.096 10.054 0 18.060-3.165 23.924-9.526 5.896-6.206 8.875-15.112 8.875-26.562 0-11.171-3.072-20.139-9.154-26.934-6.237-6.796-13.84-10.147-22.993-10.147z" />
<glyph unicode="&#xe91e;" glyph-name="doc-vide" d="M670.41 957.766h-518.361v-1017.142h719.903v815.632l-201.542 201.511zM186.492-24.933v948.255h459.559v-191.457h191.457v-756.829h-651.016z" />
<glyph unicode="&#xe91f;" glyph-name="uniE91F" d="M946.424 852.604h-558.545c0 34.257-27.803 62.061-62.061 62.061h-248.242c-34.257 0-62.061-27.803-62.061-62.061v-186.213c0-34.257 27.803-62.061 62.061-62.061h868.848c34.257 0 62.061 27.803 62.061 62.061v124.152c0 34.288-27.803 62.061-62.061 62.061z" />
<glyph unicode="&#xe920;" glyph-name="uniE920" d="M884.364 790.544h-744.727c-34.257 0-62.061-27.803-62.061-62.092v-62.061c0-34.257 27.803-62.061 62.061-62.061h744.727c34.257 0 62.061 27.803 62.061 62.061v62.061c0 34.32-27.803 62.092-62.061 62.092z" />
<glyph unicode="&#xe921;" glyph-name="uniE921" d="M946.424 728.452h-868.848c-34.257 0-62.061-27.772-62.061-62.061v-620.606c0-34.257 27.803-62.061 62.061-62.061h868.848c34.257 0 62.061 27.803 62.061 62.061v620.606c0 34.32-27.803 62.061-62.061 62.061z" />
<glyph unicode="&#xe922;" glyph-name="uniE922" d="M946.424 852.604h-558.545c0 34.257-27.803 62.061-62.061 62.061h-248.242c-34.257 0-62.061-27.803-62.061-62.061v-496.485c0-34.288 27.803-62.092 62.061-62.092h868.848c34.257 0 62.061 27.803 62.061 62.092v434.424c0 34.288-27.803 62.061-62.061 62.061z" />
<glyph unicode="&#xe923;" glyph-name="uniE923" d="M915.394 790.512h-806.788c-17.16 0-31.030-13.871-31.030-31.030v-341.333h868.848v341.333c0 17.16-13.871 31.030-31.030 31.030z" />
<glyph unicode="&#xe924;" glyph-name="uniE924" d="M543.030 542.27h-248.242c-17.16 0-31.030-13.871-31.030-31.030 0-17.129 13.871-31.030 31.030-31.030h248.242c17.129 0 31.030 13.902 31.030 31.030 0 17.16-13.902 31.030-31.030 31.030zM729.212 666.391h-434.424c-17.16 0-31.030-13.871-31.030-31.030 0-17.129 13.871-31.030 31.030-31.030h434.424c17.129 0 31.030 13.902 31.030 31.030 0 17.16-13.902 31.030-31.030 31.030z" />
<glyph unicode="&#xe925;" glyph-name="uniE925" d="M946.424 418.149h-868.848c-34.257 0-62.061-27.772-62.061-62.030v-310.334c0-34.257 27.803-62.061 62.061-62.061h868.848c34.257 0 62.061 27.803 62.061 62.061v310.334c0 34.288-27.803 62.030-62.061 62.030z" />
<glyph unicode="&#xe926;" glyph-name="droit-nego" d="M512.155 945.354v0.31c-0.031-0.062-0.093-0.124-0.155-0.124s-0.093 0.062-0.155 0.124v-0.31c-123.78-123.687-314.74-165.795-459.869-165.795 0-354.956 214.854-665.104 459.869-826.678v-0.186c0.062 0.062 0.093 0.062 0.155 0.124 0.062-0.062 0.124-0.062 0.155-0.124v0.186c245.015 161.575 459.869 471.692 459.869 826.678-145.129 0-336.089 42.108-459.869 165.795zM474.391 274.106l-0.465 0.434-0.434-0.434-164.864 166.012 79.531 79.624 85.768-85.892 189.13 189.347 79.531-79.624-268.195-269.467z" />
<glyph unicode="&#xe927;" glyph-name="eco" d="M327.463 63.938c-4.158 4.841-8.595 9.93-13.281 15.298-4.53 5.43-8.937 11.264-13.715 17.284-4.686 6.020-9.744 12.195-14.646 18.804-4.81 6.734-9.712 13.622-14.832 20.79-2.513 3.568-5.089 7.168-7.664 10.861-2.42 3.755-4.903 7.571-7.416 11.419-4.872 7.727-10.085 15.515-15.050 23.614-9.495 16.477-19.735 33.202-28.517 51.076-9.464 17.47-17.501 35.995-25.972 54.21-7.478 18.711-15.453 37.112-21.535 55.886-6.92 18.494-12.040 37.205-17.408 55.11-2.482 9.030-4.561 17.967-6.765 26.655-1.024 4.375-2.141 8.72-3.165 12.971-0.9 4.282-1.738 8.533-2.607 12.722-1.645 8.409-3.227 16.508-4.779 24.359-1.458 7.913-2.42 15.608-3.537 22.931-1.117 7.354-2.265 14.367-3.072 21.070-0.683 6.765-1.334 13.126-1.955 19.084-0.621 5.989-1.148 11.574-1.676 16.787-0.465 5.182-0.621 9.961-0.838 14.274-0.559 10.085-0.9 17.563-1.21 22.063l-16.787 133.958c-14.988-35.654-220.812-540.269 88.033-686.235 0 0 73.076-28.486 145.129 0.652 2.203 0.9 4.53 1.862 6.858 2.762 1.427 0.559 2.762 1.21 4.158 1.8-1.893 1.955-3.879 4.034-5.958 6.33-3.631 4.189-7.571 8.688-11.792 13.467zM412.238 398.972c-21.38 21.876-46.452 44.311-75.807 66.901-241.788 186.213-234.496 261.337-234.496 261.337l-0.869-1.986c4.313-34.226 11.45-90.515 16.725-132.965-0.124 2.576-0.217 3.91-0.217 3.91s1.707-9.681 4.686-26.593c0.745-4.251 1.489-8.906 2.513-13.995 1.117-5.027 2.389-10.457 3.724-16.291 1.272-5.834 2.669-12.009 4.127-18.525 1.614-6.547 3.6-13.281 5.554-20.325s3.848-14.429 6.113-21.938c2.513-7.509 5.027-15.267 7.633-23.211 1.303-3.972 2.638-7.975 3.972-12.040 1.552-4.034 3.072-8.068 4.624-12.195 3.165-8.192 6.237-16.57 9.619-25.010 7.354-16.632 14.398-34.009 23.18-50.89 8.068-17.222 17.811-33.885 26.996-50.766 10.147-16.322 19.797-32.892 30.813-48.221 10.24-15.794 21.783-30.317 32.458-44.622 5.616-6.982 11.295-13.653 16.756-20.263 2.731-3.289 5.461-6.578 8.099-9.775 2.793-3.103 5.648-6.144 8.409-9.185 5.461-6.020 10.83-11.854 15.981-17.501 5.244-5.554 10.674-10.674 15.639-15.732 5.027-4.903 9.775-9.868 14.46-14.212 4.655-4.22 9.123-8.285 13.312-12.040 4.158-3.755 8.037-7.261 11.667-10.55 3.755-3.227 7.571-6.299 10.861-9.061 3.879-3.227 7.23-5.958 10.116-8.378 10.178 9.402 19.27 19.673 27.276 30.596-57.84 81.703-69.508 191.116-23.924 283.524zM899.289 899.15l-21.721-172.994c-0.31-5.834-0.869-15.515-1.52-28.579-0.341-5.585-0.559-11.729-1.086-18.432-0.683-6.703-1.396-13.933-2.203-21.659-0.745-7.727-1.583-15.981-2.482-24.638-1.024-8.657-2.576-17.749-3.91-27.245-1.52-9.464-2.762-19.425-4.561-29.603-2.017-10.178-4.127-20.697-6.268-31.496-1.055-5.43-2.203-10.923-3.289-16.477-1.334-5.492-2.731-11.047-4.127-16.694-2.886-11.202-5.554-22.807-8.657-34.475-7.013-23.087-13.591-47.29-22.528-71.152-7.913-24.266-18.215-48.035-27.834-72.208-10.954-23.552-21.318-47.476-33.544-70.066-11.388-23.056-24.607-44.653-36.864-65.97-6.423-10.457-13.095-20.542-19.456-30.503-3.227-4.965-6.423-9.899-9.557-14.801-3.351-4.686-6.64-9.402-9.899-13.995-6.578-9.185-12.971-18.153-19.146-26.81-6.33-8.564-12.878-16.508-18.928-24.297-6.144-7.789-11.854-15.329-17.687-22.342-6.051-6.982-11.823-13.56-17.191-19.735-5.399-6.237-10.488-12.071-15.174-17.439-2.7-3.010-5.275-5.679-7.633-8.223 1.769-0.714 3.444-1.583 5.275-2.296 3.010-1.179 6.051-2.358 8.906-3.568 93.029-37.609 187.454-0.807 187.454-0.807 398.926 188.509 133.027 840.456 113.633 886.505zM599.816 162.335c6.703 7.292 13.591 14.864 20.697 22.621 3.537 3.879 7.137 7.851 10.768 11.885 3.475 4.127 6.982 8.347 10.519 12.598 7.075 8.533 14.429 17.222 21.597 26.19 13.777 18.494 28.703 37.236 42.015 57.592 14.181 19.859 26.624 41.239 39.75 62.371 11.916 21.721 24.545 43.287 34.94 65.505 11.295 21.845 20.387 44.249 29.913 65.753 4.406 10.892 8.347 21.721 12.381 32.303 1.986 5.306 4.003 10.519 5.958 15.701 1.769 5.275 3.475 10.457 5.151 15.608 3.351 10.24 6.64 20.232 9.806 29.944 3.010 9.712 5.43 19.239 7.975 28.331 2.482 9.154 5.089 17.873 7.106 26.252 1.924 8.44 3.724 16.446 5.43 23.924 1.676 7.54 3.227 14.584 4.717 21.132 1.365 6.516 2.265 12.567 3.258 18.029 3.879 21.907 6.051 34.413 6.051 34.413s-0.093-1.769-0.279-5.058c6.858 54.831 16.074 127.566 21.659 171.753-0.683 1.676-1.117 2.607-1.117 2.607s9.34-97.063-302.98-337.641c-43.411-33.451-79.593-66.56-109.661-98.738-19.208-20.542-34.413-42.977-46.018-66.498-45.584-92.408-33.916-201.821 23.955-283.493 11.047-15.608 23.738-30.255 38.074-43.504 3.724 3.103 8.068 6.64 13.126 10.83 4.22 3.537 9.216 7.478 14.057 11.698 4.624 4.22 9.712 8.782 15.019 13.622 5.43 4.841 11.171 10.054 17.253 15.515 5.958 5.648 12.133 12.009 18.649 18.37 6.454 6.609 13.436 13.188 20.232 20.387z" />
<glyph unicode="&#xe928;" glyph-name="envoi-mail-acquereur" d="M158.503 748.187h706.994c16.353 0 29.386-13.188 29.386-29.479v-538.996c0-16.229-13.033-29.572-29.386-29.572h-706.994c-16.353 0-29.386 13.343-29.386 29.572v539.027c0 16.291 13.033 29.448 29.386 29.448v0zM836.080 663.661v0l-311.513-311.575c-6.982-6.92-18.184-6.92-24.855 0l-311.792 311.575v-454.47h648.192v454.47h-0.031zM811.846 689.323v0h-599.692l299.691-299.66 300.001 299.66z" />
<glyph unicode="&#xe929;" glyph-name="espace-proprietaire" d="M932.368 753.68h-840.735c-42.046 0-76.117-34.071-76.117-76.148v-456.735c0-42.046 34.071-76.117 76.117-76.117h840.735c42.046 0 76.117 34.071 76.117 76.117v456.735c0 42.077-34.071 76.148-76.117 76.148zM576.543 604.020h152.266v-43.039h-152.266v43.039zM447.457 294.338h-304.531v304.469h304.5v-304.469zM881.074 299.551h-304.531v43.039h304.5v-43.039zM881.074 430.282h-304.531v43.039h304.5v-43.039z" />
<glyph unicode="&#xe92a;" glyph-name="espace-proprio" d="M221.091 625.586c26.345-66.715 72.083-126.386 130.048-126.386s103.734 59.64 130.017 126.386c22.869-2.327 47.6 36.523 39.812 64.388-2.265 8.223-9.216 9.464-16.694 8.13 17.563 76.179 14.46 141.84-46.142 162.071-12.474 80.493-236.823 58.678-264.006-67.181-6.299-29.417-2.886-65.629 3.786-94.922-7.447 1.334-14.367 0.062-16.632-8.13-7.758-27.834 17.222-66.653 39.812-64.357zM229.779 771.119c104.169-35.002 149.008 6.92 192.729 36.895-11.978-18.215-26.655-39.284-33.264-46.204 29.479 16.477 47.632 31.496 57.375 46.67 10.116-47.352 37.919-82.292 34.071-106.186-13.622-75.559-59.857-184.196-129.52-184.196-53.62 0-92.191 69.818-109.413 112.578-8.564 21.225-15.95 45.49-20.263 69.694v0.031c-2.451 17.532 6.392 44.466 8.285 70.718zM438.086 241.804c0 79.81 30.937 152.359 81.144 206.941-16.167 4.561-32.023 8.999-45.987 14.429-17.47-69.849-50.083-153.848-82.448-218.484l-21.101 132.499 7.199 28.486-25.755 17.129-25.786-17.129 7.199-28.486-21.101-132.499c-14.646 29.262-29.355 62.557-42.698 96.69-1.583 3.972-3.134 8.037-4.655 12.071-0.652 1.707-1.272 3.413-1.924 5.12-1.241 3.32-2.451 6.609-3.631 9.899-0.745 1.955-1.489 4.034-2.172 6.020-1.086 3.010-2.141 5.958-3.196 8.999-0.776 2.172-1.489 4.375-2.265 6.547-0.931 2.793-1.893 5.585-2.793 8.378-0.776 2.265-1.552 4.561-2.327 6.92-0.807 2.607-1.676 5.275-2.513 7.882-0.714 2.358-1.489 4.748-2.234 7.106-0.776 2.482-1.489 5.027-2.265 7.509-0.683 2.389-1.427 4.779-2.079 7.199-0.714 2.42-1.427 4.841-2.079 7.261-0.652 2.389-1.365 4.779-1.986 7.137-0.652 2.513-1.303 4.934-1.924 7.385-0.559 2.079-1.148 4.251-1.645 6.33 0 0 0 0-0.031 0-0.093-0.031-0.186-0.062-0.248-0.062-2.948-1.117-5.989-2.234-9.092-3.289-0.248-0.062-0.465-0.155-0.652-0.217-3.165-1.086-6.33-2.11-9.557-3.103-50.486-15.67-113.85-26.034-136.751-72.425-25.6-51.572-37.981-163.064-42.853-256.434 0-0.186 0-0.403 0-0.652-0.248-4.127-0.465-8.254-0.652-12.319-0.31-7.416 2.11-13.964 7.261-19.394 5.12-5.368 11.605-8.099 18.991-8.099h424.991c-26.779 45.49-42.387 98.242-42.387 154.655zM744.51 491.318c-138.178 0-250.197-112.081-250.197-250.29 0-138.178 112.019-250.197 250.197-250.197 138.209 0 250.259 112.019 250.259 250.197 0.031 138.209-112.050 250.29-250.259 250.29zM677.174 105.643v271.825l217.74-135.913-217.74-135.913z" />
<glyph unicode="&#xe92b;" glyph-name="facturation-periode" d="M594.913 754.238h-102.4v-297.891l252.618-106.93 40.091 94.394-190.309 80.71zM543.682 959.721c-230.028 0-419.561-171.939-448.016-394.302h103.455c27.648 165.485 171.194 291.778 344.56 291.778 193.102 0 349.712-156.548 349.712-349.618 0-165.981-115.898-304.687-271.081-340.402l-110.127-110.127c10.457-0.714 20.883-1.645 31.527-1.645 249.701 0 452.112 202.473 452.112 452.143 0 249.763-202.442 452.174-452.143 452.174zM302.204 534.388h-274.029v-274.060l321.846-321.691 273.904 274.122-321.722 321.629zM165.205 323.475c-37.857 0-68.515 30.658-68.515 68.484 0 37.857 30.658 68.515 68.515 68.515 37.826 0 68.515-30.658 68.515-68.515 0-37.795-30.689-68.484-68.515-68.484z" />
<glyph unicode="&#xe92c;" glyph-name="facturation-utilisateur" d="M723.813 703.379c-2.544 9.154-10.271 10.581-18.587 9.030 19.518 84.744 16.074 157.789-51.355 180.348-13.84 89.491-263.385 65.257-293.671-74.752-7.044-32.706-3.227-72.983 4.189-105.565-8.285 1.52-15.95 0.093-18.494-9.030-8.626-30.968 19.208-74.131 44.311-71.587 29.231-74.256 80.151-140.598 144.632-140.598s115.371 66.374 144.601 140.598c25.538-2.638 53 40.588 44.373 71.556zM678.912 717.157c-15.143-83.999-66.529-204.893-144.074-204.893-59.609 0-102.524 77.669-121.701 125.238-9.495 23.583-17.656 50.579-22.497 77.452v0.031c-2.731 19.549 7.106 49.493 9.247 78.693 115.867-38.974 165.702 7.664 214.357 41.053-13.312-20.263-29.665-43.691-36.988-51.355 32.83 18.308 52.969 35.002 63.798 51.914 11.264-52.689 42.17-91.539 37.857-118.132zM534.838 316.4c18.96 17.904 46.080 42.729 67.212 69.011-21.070-7.106-43.442-10.985-67.212-10.985-23.738 0-46.111 3.91-67.181 10.985 21.101-26.283 48.221-51.107 67.181-69.011zM169.55 91.803c-0.496-8.875-0.962-17.687-1.365-26.283-0.372-8.316 2.358-15.577 8.068-21.504 5.741-6.020 12.878-9.092 21.163-9.092h29.044l-56.91 56.879zM855.443 365.242c-28.92 58.523-115.743 65.443-173.863 87.971 0-0.062-0.062-0.155-0.062-0.186-11.109 4.251-22.466 8.037-33.854 11.233 10.395-56.010-55.886-111.988-112.857-168.029-56.941 56.041-123.252 112.019-112.826 168.029-15.794-4.437-31.279-9.899-46.421-16.291-23.304-7.664-49.586-14.026-74.411-22.373h34.785l271.019-270.988-119.591-119.653h387.134c8.285 0 15.422 3.072 21.163 9.092 5.772 5.927 8.44 13.219 8.099 21.504-4.779 106.527-18.494 239.647-48.314 299.691zM321.784 391.308h-201.635v-201.666l236.854-236.73 201.573 201.697-236.792 236.699zM220.998 236.125c-27.865 0-50.424 22.59-50.424 50.393 0 27.834 22.559 50.393 50.424 50.393 27.803 0 50.393-22.559 50.393-50.393s-22.559-50.393-50.393-50.393z" />
<glyph unicode="&#xe92d;" glyph-name="fermer-pop-map" d="M863.884 801.032c-194.032 194.032-509.735 194.032-703.736 0.031-194.032-194.001-194.001-509.735 0.031-703.767 193.97-194.001 509.673-194.001 703.674 0.031 194.032 194.001 194.001 509.704 0.031 703.705zM809.581 151.599c-164.057-164.088-431.073-164.119-595.13-0.031-164.119 164.119-164.119 431.135 0 595.223 164.057 164.088 431.042 164.088 595.161 0 164.088-164.119 164.057-431.135-0.031-595.192zM734.704 623.756l-42.946 42.915c-11.885 11.885-31.123 11.885-43.008 0l-136.099-136.13-130.079 130.079c-11.916 11.885-31.154 11.885-43.039 0l-40.246-40.246c-11.885-11.854-11.885-31.123 0-43.008l130.079-130.11-137.464-137.464c-11.885-11.885-11.885-31.154 0-43.008l42.915-42.946c11.885-11.885 31.154-11.885 43.039 0l137.464 137.464 130.079-130.079c11.885-11.885 31.154-11.885 43.039 0l40.246 40.246c11.885 11.885 11.885 31.154 0 43.039l-130.079 130.079 136.13 136.13c11.854 11.885 11.854 31.154-0.031 43.039z" />
<glyph unicode="&#xe92e;" glyph-name="fiche-acquereur" d="M700.664 945.664h-569.344v-992.97h761.328v801.047l-191.984 191.922zM780.133 59.066h-536.266v767.876h344.25v-185.747h192.016v-582.128zM698.492 169.596v37.516c0 18.184-11.792 33.699-28.113 39.16v0c-1.303 0.434-84.992 21.814-96.97 45.584-5.492 10.892-0.093 24.793 5.368 34.413 2.482 3.32 4.965 6.92 7.292 10.643v0.031c14.181 22.652 25.010 52.503 26.096 89.429 1.676 55.513-41.27 100.569-92.284 100.693v0c-0.031 0-0.093 0-0.124 0s-0.093 0-0.124 0v0c-50.983-0.124-93.898-45.211-92.284-100.693 1.086-36.895 11.947-66.746 26.128-89.429v0-0.031c2.327-3.724 4.779-7.292 7.261-10.643 5.461-9.65 10.861-23.552 5.399-34.413-12.009-23.769-95.697-45.149-96.97-45.584v0c-16.353-5.461-28.144-20.976-28.144-39.16v-37.516h357.469z" />
<glyph unicode="&#xe92f;" glyph-name="uniE92F" d="M1008.485 449.148c0-274.201-222.284-496.485-496.485-496.485s-496.485 222.284-496.485 496.485c0 274.201 222.284 496.485 496.485 496.485s496.485-222.284 496.485-496.485z" />
<glyph unicode="&#xe930;" glyph-name="uniE930" d="M275.022 750.794c158.627 0 317.254 0 475.881 0 23.769-62.247 47.383-124.587 71.090-186.896-206.041-0.031-412.051-0.062-618.093 0 23.738 62.309 47.383 124.649 71.121 186.896z" />
<glyph unicode="&#xe931;" glyph-name="uniE931" d="M203.714 553.441c206.196 0 412.3 0 618.496 0-1.52-27.214 3.693-55.389-3.755-81.92-7.633-24.731-35.219-42.729-60.881-34.63-22.404 6.392-37.205 28.827-38.416 51.51-1.458-26.438-22.156-52.596-49.866-53.279-28.269-1.489-51.107 24.421-53.093 51.386-1.676-26.934-22.838-53.776-51.386-53.589-27.803-0.59-49.338 24.855-51.852 51.169-2.389-25.228-22.032-49.648-48.438-51.169-28.548-2.265-53.124 23.986-53.9 51.665-0.838-27.431-20.976-56.351-50.238-57.127-29.168-1.738-52.007 25.631-53.62 53.217-1.055-26.841-22.745-53.434-50.828-53.434-27.648-0.652-50.114 24.886-51.759 51.386-1.117 24.886-0.186 49.866-0.465 74.814z" />
<glyph unicode="&#xe932;" glyph-name="uniE932" d="M460.645 416.38c20.542-1.148 39.284 10.426 52.503 25.228 13.002-14.957 31.62-26.065 51.945-25.321 20.449-0.372 38.85 11.388 51.759 26.5 12.474-13.653 29.603-23.893 48.5-24.142 20.945-1.645 40.153 9.93 53.713 24.979 16.322-19.177 42.325-29.51 67.243-23.583 0-90.826 0-181.651 0-272.446-182.241 0-364.482 0-546.723 0-0.031 88.219 0.031 176.469-0.031 264.657 24.917-5.492 51.262 4.344 67.429 23.8 12.505-14.429 30.379-24.731 49.835-25.041 21.969-1.365 42.015 11.388 55.389 27.927 12.443-13.529 29.851-22.528 48.438-22.559zM623.616 371.79c0-56.568-0.062-113.199 0-169.86 35.964-0.031 71.928 0.031 107.923-0.031 0.155 56.134 0 112.175 0.062 168.246-4.22 1.738-8.378 3.444-12.567 5.151-29.665-14.212-64.791-15.329-95.418-3.506zM415.62 370.455c-33.264-17.625-74.349-19.425-108.389-3.010-4.313-1.645-8.564-3.289-12.847-4.996 0.031-53.527-0.093-107.024 0.062-160.551 87.505 0.062 175.073-0.062 262.609 0.062 0.031 53.186-0.124 106.372 0.031 159.527-15.205 1.427-30.068 5.275-43.97 11.481-30.503-14.305-66.405-15.267-97.497-2.513z" />
<glyph unicode="&#xe933;" glyph-name="uniE933" d="M499.34 321.21c19.673 9.247 45.739-10.736 39.377-32.272-5.244-20.759-34.816-27.989-49.431-12.443-15.236 12.816-7.913 38.695 10.054 44.715z" />
<glyph unicode="&#xe934;" glyph-name="uniE934" d="M1008.485 449.148c0-274.201-222.284-496.485-496.485-496.485s-496.485 222.284-496.485 496.485c0 274.201 222.284 496.485 496.485 496.485s496.485-222.284 496.485-496.485z" />
<glyph unicode="&#xe935;" glyph-name="uniE935" d="M460.955 735.558h102.431l123.47-572.726h-114.254l-23.521 122.508h-74.814l-22.249-122.508h-114.874l123.811 572.726zM541.448 356.616l-28.982 212.558-30.224-212.558h59.206z" />
<glyph unicode="&#xe936;" glyph-name="uniE936" d="M1008.485 449.148c0-274.201-222.284-496.485-496.485-496.485s-496.485 222.284-496.485 496.485c0 274.201 222.284 496.485 496.485 496.485s496.485-222.284 496.485-496.485z" />
<glyph unicode="&#xe937;" glyph-name="uniE937" d="M534.993 289.652c-0.559 2.048-2.451 3.351-4.624 3.103-2.576-0.341-4.53-0.652-6.113-0.9-3.972-0.621-5.958-0.9-12.257-0.9-6.361 0-8.409 0.31-12.412 0.931-1.614 0.279-3.537 0.59-6.144 0.931-2.079 0.279-4.065-1.055-4.624-3.072l-13.467-46.887c-0.217-0.621-0.248-1.303-0.124-1.955l11.45-62.557c0.403-2.017 2.11-3.475 4.189-3.475h41.363c2.048 0 3.848 1.489 4.22 3.475l11.326 63.767c0.124 0.652 0.093 1.272-0.062 1.893l-12.722 45.646z" />
<glyph unicode="&#xe938;" glyph-name="uniE938" d="M812.28 242.3c-56.041 54.396-124.4 92.719-197.911 111.088-1.862 0.993-3.972 1.552-6.113 1.552h-6.672c-0.186 0-0.341-0.031-0.559-0.062l30.224-65.412-62.96-114.75h235.086c7.075 0 12.784 5.71 12.784 12.784v45.646c0 3.444-1.427 6.765-3.879 9.154z" />
<glyph unicode="&#xe939;" glyph-name="uniE939" d="M423.129 354.878c-0.279 0-0.496 0.062-0.714 0.062h-4.841c-0.993 0-1.955-0.093-2.948-0.31-75.466-17.873-145.594-56.723-202.876-112.33-2.482-2.42-3.879-5.741-3.879-9.185v-45.646c0-7.106 5.741-12.784 12.784-12.784h233.503l-61.812 113.323 30.782 66.87z" />
<glyph unicode="&#xe93a;" glyph-name="uniE93A" d="M585.635 387.336v39.44c25.941 25.29 43.411 62.123 46.142 98.925 0.155 0 0.279 0 0.434 0 12.971 0 23.49 11.14 23.49 24.917 0 10.178-5.71 18.866-13.902 22.745 4.748 14.739 7.354 30.534 7.354 47.011 0 80.306-61.409 145.47-137.154 145.47s-137.154-65.164-137.154-145.47c0-16.446 2.638-32.272 7.354-47.011-8.223-3.879-13.933-12.598-13.933-22.745 0-13.746 10.519-24.917 23.521-24.917 0.155 0 0.279 0 0.403 0 2.7-36.336 19.797-72.611 45.18-97.839v-40.526c0-1.334 0.31-2.669 0.9-3.879 3.382-6.672 34.257-65.008 73.045-65.784 0.062 0 0.683 0 0.714 0 0 0 0 0 0.031 0 38.726 0 69.26 59.113 72.642 65.846 0.59 1.179 0.931 2.482 0.931 3.817z" />
<glyph unicode="&#xe93b;" glyph-name="uniE93B" d="M1008.485 449.148c0-274.201-222.284-496.485-496.485-496.485s-496.485 222.284-496.485 496.485c0 274.201 222.284 496.485 496.485 496.485s496.485-222.284 496.485-496.485z" />
<glyph unicode="&#xe93c;" glyph-name="uniE93C" d="M608.008 567.653v-53.651c0-4.624 2.607-8.875 6.734-10.985 1.769-0.9 3.693-1.365 5.616-1.365 2.544 0 5.089 0.807 7.199 2.389l113.478 82.385c3.196 2.327 5.058 6.020 5.058 9.961s-1.893 7.664-5.058 9.992l-113.478 82.416c-3.724 2.731-8.688 3.103-12.816 1.024-4.127-2.11-6.734-6.361-6.734-10.985v-53.651h-249.732c-70.284 0-127.379-57.158-127.379-127.379v-96.008c0-15.919 12.878-28.765 28.765-28.765s28.796 12.847 28.796 28.765v96.008c0 38.509 31.31 69.818 69.849 69.818h249.701z" />
<glyph unicode="&#xe93d;" glyph-name="uniE93D" d="M799.558 526.569c-15.919 0-28.765-12.878-28.765-28.734v-96.008c0-38.509-31.372-69.88-69.88-69.88h-250.911v53.651c0 4.624-2.638 8.875-6.734 10.985-4.127 2.079-9.123 1.738-12.847-1.024l-113.447-82.385c-3.196-2.327-5.089-6.020-5.089-9.992 0-3.941 1.924-7.633 5.089-9.93l113.447-82.416c2.141-1.583 4.655-2.358 7.23-2.358 1.924 0 3.848 0.434 5.616 1.334 4.096 2.11 6.734 6.361 6.734 10.985v53.651h250.911c70.253 0 127.379 57.158 127.379 127.379v96.008c0 15.856-12.878 28.734-28.734 28.734z" />
<glyph unicode="&#xe93e;" glyph-name="guide-utilisation2" horiz-adv-x="1034" d="M936.17 754.863v61.981l-70.257 7.385c-22.602 2.356-45.586 3.534-68.315 3.534-56.792 0-113.297-7.385-167.796-21.934-38.774-10.442-76.56-24.385-112.819-41.83-36.259 17.477-74.046 31.388-112.819 41.83-54.5 14.548-110.941 21.934-167.796 21.934-22.729 0-45.713-1.178-68.284-3.534l-70.289-7.385v-61.981h-89.931v-591.314h414.381c19.164-7.831 94.769-49.12 94.769-49.12s75.605 41.289 94.769 49.12h414.381v591.314h-89.994zM97.794 207.638h-45.777v503.134h45.777v-503.134zM477.731 224.479c-73.377 34.444-155.158 53.672-241.364 53.672-20.278 0-40.302-1.114-60.039-3.183v471.619c19.737 2.037 39.76 3.183 60.039 3.183 86.206 0 167.987-19.228 241.364-53.608v-471.682zM857.668 274.967c-19.769 2.037-39.792 3.183-60.102 3.183-86.206 0-167.924-19.228-241.364-53.672v471.682c73.441 34.381 155.158 53.608 241.364 53.608 20.31 0 40.334-1.114 60.102-3.183v-471.619zM981.947 207.638h-45.777v503.134h45.777v-503.134z" />
<glyph unicode="&#xe93f;" glyph-name="implantation-geo" d="M512.062 945.664v0c-0.031 0-0.031 0 0 0-0.062 0-0.093 0-0.093 0v0c-203.745-0.062-368.919-165.019-368.919-368.423 0-262.485 368.919-624.547 368.919-624.547s368.981 362.062 368.981 624.547c0 203.404-165.174 368.361-368.888 368.423zM512 388.080c-105.069 0-190.278 85.023-190.278 189.999 0 104.913 85.209 189.936 190.278 189.936 105.131 0 190.309-85.023 190.309-189.936 0-104.944-85.178-189.999-190.309-189.999z" />
<glyph unicode="&#xe940;" glyph-name="maison" d="M856.436 601.848v222.611h-112.609v-110.127l-231.393 231.331-14.243-13.995-482.676-482.428 81.951-81.951 414.844 414.627 414.224-413.944 81.951 81.951zM512 674.583l-0.062 0.124-344.374-344.188v-377.825h688.873v377.825l-344.312 344.188z" />
<glyph unicode="&#xe941;" glyph-name="uniE941" d="M1030.287 448.005c0-282.773-229.233-512.005-512.005-512.005s-512.005 229.233-512.005 512.005c0 282.773 229.233 512.005 512.005 512.005s512.005-229.233 512.005-512.005z" />
<glyph unicode="&#xe942;" glyph-name="uniE942" d="M677.349 771.709c6.786-50.798-28.891-97.502-79.689-104.288-50.788-6.797-97.46 28.891-104.257 79.679-6.786 50.788 28.87 97.46 79.658 104.257s97.481-28.849 104.288-79.648v0z" />
<glyph unicode="&#xe943;" glyph-name="uniE943" d="M479.82 662.079c-34.638-8.543-69.598-25.025-100.027-48.138-46.517-35.334-75.553-80.76-81.83-127.869-0.125-0.811-0.145-1.611-0.208-2.411-3.856 0.613-7.919-0.727-10.528-3.991l-8.106-9.925-42.952 35.095-86.673-106.201 143.79-117.372 86.715 106.159-42.942 35.054 8.065 9.925c3.585 4.386 3.284 10.6-0.374 14.685 12.772 4.157 22.718 15.287 24.62 29.473 3.669 27.53 23.362 56.712 54.030 80.012 6.641 5.051 13.573 9.655 20.723 13.832l-28.704-161.052c-1.725-9.842-1.050-19.143 1.382-27.893l-22.313-97.19-107.323-19.808c-23.134-4.282-38.4-26.449-34.139-49.572 4.147-22.427 25.129-37.486 47.473-34.503 0.707 0.104 1.424 0.218 2.13 0.364l134.821 24.9c16.69 3.066 29.951 15.797 33.765 32.352l19.486 84.948c3.762-0.488 7.576-0.769 11.401-0.852l66.023-72.467-23.882-181.972c-3.066-23.321 13.354-44.698 36.675-47.764 3.804-0.509 7.576-0.509 11.224-0.021 18.592 2.473 33.973 17.189 36.498 36.696l26.48 201.572c1.611 12.44-2.318 24.942-10.767 34.222l-65.826 72.238c2.006 4.562 3.596 9.519 4.542 14.84l26.574 149.246c14.664-6.911 31.125-11.723 48.959-14.134 16.815-2.255 33.692-2.214 49.884-0.052 36.55 4.895 69.609 20.473 90.976 44.106 13.344 14.788 12.159 37.569-2.598 50.881v0c-14.757 13.354-37.538 12.159-50.881-2.598-14.882-16.482-46.86-25.098-77.756-20.962-25.035 3.367-44.552 14.456-52.212 29.66-0.676 1.361-1.486 2.64-2.349 3.897-8.792 18.675-25.721 33.422-43.253 41.778-4.136 2.785-8.938 4.76-14.186 5.612-2.276 0.655-4.729 1.226-7.296 1.642l1.299-0.052c-41.362 1.694-70.409-6.391-70.409-6.391zM337.838 438.403l-8.106-9.925-43.274 35.314 8.096 9.925c0.655 0.821 1.829 0.935 2.619 0.281l1.559-1.278c3.419-13.967 15.059-25.098 30.19-27.104 1.081-0.166 2.172-0.187 3.274-0.229l0.769-0.624 4.604-3.752c0.8-0.665 0.925-1.839 0.27-2.609v0z" />
<glyph unicode="&#xe944;" glyph-name="mandat-enrgistre" d="M816.5 303.554c11.512 11.512 30.006 11.512 41.829 0 11.512-11.574 11.512-30.255 0-41.767l-72.735-72.642 72.735-72.642c11.512-11.512 11.512-30.192 0-41.705s-30.317-11.512-41.829 0l-72.735 72.673-72.425-72.673c-11.512-11.512-30.317-11.512-41.829 0s-11.512 30.192 0 41.705l72.735 72.642-72.735 72.642c-11.512 11.512-11.512 30.192 0 41.767 11.512 11.512 30.317 11.512 41.829 0l72.425-72.673 72.735 72.673zM557.397 125.068v0h-341.52v648.161h311.513l186.989-186.896v-243.153c0-16.229 13.343-29.479 29.386-29.479 16.353 0 29.696 13.25 29.696 29.479v255.379c0 7.571-3.041 15.143-8.782 20.821l-203.962 204.086c-5.461 5.368-12.722 8.72-20.914 8.72h-353.342c-16.074 0-29.386-13.25-29.386-29.479v-707.025c0-16.291 13.343-29.448 29.386-29.448h370.936c16.353 0 29.386 13.157 29.386 29.448s-13.033 29.386-29.386 29.386v0zM596.775 519.68v0c9.712 0 17.563-7.944 17.563-17.718 0-9.712-7.882-17.656-17.563-17.656h-263.354c-9.712 0-17.563 7.944-17.563 17.656 0 9.775 7.882 17.718 17.563 17.718h263.354zM596.775 438.846v0c9.712 0 17.563-7.882 17.563-17.656 0-9.744-7.882-17.625-17.563-17.625h-98.8c-9.712 0-17.563 7.882-17.563 17.625 0 9.775 7.882 17.656 17.563 17.656h98.8zM432.221 438.846v0c9.712 0 17.873-7.882 17.873-17.656 0-9.744-8.192-17.625-17.873-17.625h-98.769c-9.712 0-17.563 7.882-17.563 17.625 0 9.775 7.882 17.656 17.563 17.656h98.769zM549.826 358.105v0c9.712 0 17.563-7.882 17.563-17.625 0-9.775-7.882-17.749-17.563-17.749h-51.821c-9.712 0-17.563 7.975-17.563 17.749 0 9.744 7.882 17.625 17.563 17.625h51.821zM432.221 358.105v0c9.712 0 17.873-7.882 17.873-17.625 0-9.775-8.192-17.749-17.873-17.749h-98.769c-9.712 0-17.563 7.975-17.563 17.749 0 9.744 7.882 17.625 17.563 17.625h98.769zM549.826 277.333v0c9.712 0 17.563-7.975 17.563-17.718s-7.882-17.625-17.563-17.625h-216.374c-9.712 0-17.563 7.882-17.563 17.625s7.851 17.718 17.563 17.718h216.374z" />
<glyph unicode="&#xe945;" glyph-name="mandat-recherche" d="M700.664 945.664h-569.344v-992.97h761.328v801.047l-191.984 191.922zM780.133 59.066h-536.266v767.876h344.25v-185.747h192.016v-582.128zM710.563 171.396l-105.751 105.751c16.632 25.166 26.345 55.203 26.345 87.599 0 87.754-71.121 158.906-158.875 158.906s-158.875-71.121-158.875-158.906c0-87.723 71.121-158.875 158.875-158.875 32.365 0 62.495 9.712 87.599 26.376l105.782-105.782 44.901 44.932zM358.431 364.715c0 62.867 50.983 113.85 113.85 113.85s113.881-50.983 113.881-113.85-51.014-113.85-113.881-113.85-113.85 50.983-113.85 113.85z" />
<glyph unicode="&#xe946;" glyph-name="mes-contacts" d="M644.779 254.278c0 0-162.32 41.705-185.251 87.102-10.457 20.79-0.186 47.321 10.271 65.629 4.779 6.423 9.433 13.219 13.902 20.356v0c27.089 43.318 47.756 100.352 49.866 170.791 3.196 106-78.91 192.016-176.345 192.295v0c-0.062 0-0.155 0-0.217 0s-0.124 0-0.248 0v0c-97.404-0.31-179.479-86.295-176.314-192.295 2.11-70.439 22.807-127.441 49.866-170.791h0.093c4.499-7.137 9.185-13.933 13.933-20.356 10.426-18.308 20.697-44.839 10.271-65.629-22.869-45.397-185.282-87.102-185.282-87.102-31.216-10.426-53.807-39.998-53.807-74.783v-71.587h683.101v71.587c0 34.785-22.528 64.357-53.838 74.783zM969.356 214.342v0c-1.8 0.621-118.256 30.317-134.858 63.333-7.664 15.081-0.124 34.413 7.478 47.756 3.444 4.655 6.827 9.588 10.085 14.801v0c19.704 31.527 34.754 72.983 36.305 124.183 2.327 77.017-57.406 139.636-128.341 139.823v0c-0.062 0-0.093 0-0.155 0h-0.155c-70.904-0.186-130.7-62.774-128.372-139.823 1.552-51.2 16.601-92.656 36.336-124.183v0 0c3.258-5.213 6.672-10.116 10.085-14.801 0.559-0.962 1.086-1.955 1.614-2.917 57.499-23.831 95.418-79.996 95.418-143.019v-71.587h233.689v52.069c0 25.321-16.415 46.794-39.129 54.365z" />
<glyph unicode="&#xe947;" glyph-name="mes-equipes" d="M719.189 366.173c-19.053 38.571-76.272 43.132-114.533 57.965-12.847-51.2-36.74-112.764-60.478-160.116l-15.453 97.094 5.306 20.914-18.897 12.474-18.897-12.474 5.275-20.914-15.453-97.094c-10.768 21.411-21.504 45.863-31.31 70.842-1.148 2.948-2.296 5.865-3.382 8.844-0.496 1.241-0.962 2.482-1.396 3.724-0.9 2.451-1.831 4.872-2.7 7.292-0.528 1.458-1.055 2.948-1.583 4.437-0.776 2.172-1.552 4.406-2.327 6.578-0.59 1.614-1.117 3.227-1.645 4.81-0.683 2.017-1.396 4.065-2.079 6.113-0.59 1.707-1.117 3.351-1.676 5.027-0.621 1.955-1.272 3.879-1.862 5.834-0.559 1.738-1.086 3.444-1.645 5.182-0.59 1.862-1.117 3.693-1.645 5.523-0.559 1.769-1.055 3.506-1.583 5.275-0.528 1.831-1.024 3.537-1.489 5.337-0.496 1.769-1.024 3.506-1.458 5.244-0.496 1.8-0.962 3.6-1.396 5.43-0.403 1.52-0.838 3.103-1.241 4.624v0 0c-0.031-0.031-0.093-0.062-0.155-0.062-2.172-0.869-4.406-1.676-6.64-2.42-0.186-0.062-0.341-0.124-0.496-0.186-2.296-0.776-4.655-1.52-7.013-2.265-36.988-11.45-83.409-19.022-100.197-53.031-18.742-37.795-27.834-119.529-31.403-187.982 0-0.124 0-0.248 0-0.434-0.155-3.041-0.31-6.051-0.434-9.061-0.248-5.43 1.52-10.24 5.306-14.212 3.786-3.941 8.471-5.958 13.933-5.958v0h433.338c5.461 0 10.147 2.017 13.933 5.958 3.755 3.972 5.554 8.782 5.306 14.212-3.289 70.284-12.319 157.944-31.93 197.477zM659.704 220.207h-65.784v20.387h65.784v-20.387zM419.84 543.139c19.27-48.904 52.814-92.594 95.294-92.594 42.449 0 76.024 43.722 95.294 92.594 16.756-1.707 34.878 26.779 29.168 47.197-1.676 6.020-6.765 6.951-12.257 5.958 12.909 55.824 10.612 103.952-33.823 118.784-9.154 58.989-173.552 43.008-193.474-49.214-4.655-21.566-2.11-48.097 2.762-69.539-5.461 0.993-10.519 0.031-12.195-5.958-5.679-20.449 12.66-48.873 29.231-47.228zM426.201 649.821c76.335-25.693 109.165 5.058 141.25 27.027-8.782-13.343-19.549-28.765-24.39-33.823 21.597 12.071 34.909 23.087 42.015 34.226 7.416-34.723 27.803-60.323 24.948-77.824-9.961-55.358-43.815-135.013-94.922-135.013-39.284 0-67.553 51.169-80.182 82.51-6.268 15.515-11.636 33.296-14.832 51.045v0.031c-1.8 12.847 4.686 32.582 6.113 51.821zM313.127 574.852c-1.303 4.81-5.399 5.554-9.775 4.748 10.271 44.684 8.44 83.192-27.089 95.046-7.323 47.197-138.861 34.413-154.779-39.377-3.724-17.222-1.707-38.478 2.203-55.637-4.375 0.807-8.409 0.031-9.744-4.748-4.561-16.322 10.147-39.098 23.366-37.733 15.422-39.16 42.232-74.1 76.241-74.1 33.978 0 60.788 34.94 76.21 74.1 13.436-1.427 27.927 21.38 23.366 37.702zM289.482 582.113c-8.006-44.28-35.064-107.985-75.931-107.985-31.434 0-54.055 40.929-64.171 66.001-4.996 12.443-9.309 26.655-11.854 40.836v0 0c-1.458 10.302 3.755 26.065 4.872 41.456 61.068-20.542 87.35 4.065 113.012 21.628-7.044-10.643-15.639-23.024-19.518-27.089 17.284 9.681 27.896 18.463 33.637 27.369 5.927-27.741 22.218-48.221 19.952-62.216zM213.551 370.89c10.023 9.433 24.297 22.528 35.406 36.368-11.078-3.755-22.9-5.834-35.406-5.834s-24.328 2.048-35.406 5.834c11.109-13.871 25.414-26.965 35.406-36.368zM290.537 383.519c10.799 21.845 32.365 33.668 55.668 41.984-18.091 7.106-38.881 11.109-55.327 17.47 0-0.031 0-0.062-0.031-0.093-5.834 2.234-11.823 4.251-17.842 5.958 5.492-29.51-29.448-59.051-59.485-88.56-30.037 29.51-64.946 59.051-59.485 88.56-8.347-2.358-16.508-5.213-24.514-8.595-30.099-9.868-69.818-15.298-83.844-43.629-15.701-31.62-22.931-101.779-25.476-157.944-0.186-4.375 1.241-8.192 4.282-11.357 3.010-3.165 6.765-4.748 11.14-4.748h224.659c3.91 53.31 12.319 124.835 30.255 160.954zM908.847 574.852c-1.334 4.81-5.43 5.554-9.806 4.748 10.271 44.684 8.502 83.192-27.027 95.046-7.323 47.197-138.861 34.413-154.81-39.377-3.724-17.222-1.676-38.478 2.203-55.637-4.375 0.807-8.409 0.031-9.744-4.748-4.53-16.322 10.147-39.098 23.397-37.733 15.391-39.16 42.232-74.1 76.21-74.1s60.819 34.94 76.21 74.1c13.436-1.427 27.958 21.38 23.366 37.702zM885.17 582.113c-8.006-44.28-35.064-107.985-75.931-107.985-31.434 0-54.055 40.929-64.14 66.001-5.027 12.443-9.34 26.655-11.885 40.836v0 0c-1.427 10.302 3.755 26.065 4.872 41.456 61.099-20.542 87.35 4.065 113.043 21.628-7.075-10.643-15.67-23.024-19.549-27.089 17.315 9.681 27.927 18.463 33.637 27.369 5.927-27.741 22.249-48.221 19.952-62.216zM809.239 370.89c9.992 9.433 24.266 22.528 35.437 36.368-11.078-3.755-22.9-5.834-35.437-5.834s-24.297 2.048-35.406 5.834c11.109-13.871 25.445-26.965 35.406-36.368zM978.199 396.583c-15.205 30.875-61.006 34.506-91.601 46.39-0.031-0.031-0.031-0.062-0.031-0.093-5.865 2.234-11.823 4.251-17.873 5.958 5.523-29.51-29.386-59.051-59.454-88.56-30.037 29.51-64.946 59.051-59.454 88.56-8.347-2.358-16.508-5.213-24.514-8.595-13.902-4.592-29.944-8.223-44.528-13.591 24.576-8.409 47.632-20.201 58.958-43.132 17.811-35.902 26.283-105.906 30.255-160.985h218.329c4.406 0 8.161 1.614 11.171 4.748 3.010 3.196 4.468 7.013 4.251 11.357-2.513 56.134-9.775 126.324-25.507 157.944z" />
<glyph unicode="&#xe948;" glyph-name="mes-formations" d="M512 717.312c-62.898 0-114.129-51.2-114.129-114.192s51.2-114.192 114.129-114.192 114.192 51.2 114.192 114.192-51.293 114.192-114.192 114.192zM854.419 603.12l-70.718 72.797 24.917 98.49-97.714 27.679-27.679 97.714-98.366-24.855-72.859 70.718-72.797-70.718-98.366 24.855-27.741-97.714-97.652-27.679 24.917-98.49-70.78-72.797 70.78-72.859-24.917-98.49 97.621-27.648 27.772-97.683 98.366 24.793 72.797-70.656 72.859 70.656 98.366-24.793 27.71 97.683 97.683 27.648-24.917 98.49 70.718 72.859zM512 412.75c-104.913 0-190.185 85.395-190.185 190.371s85.271 190.309 190.185 190.309 190.247-85.333 190.247-190.309-85.333-190.371-190.247-190.371zM565.031 205.902l-53.031-51.51-95.325 92.656-18.804-4.717v-289.637l114.129 107.83 114.192-107.83v289.637l-18.866 4.717z" />
<glyph unicode="&#xe949;" glyph-name="mon-agence" d="M71.773-15.5h880.454v608.97h-880.454v-608.97zM147.921 517.353h728.219v-380.587h-728.219v380.587zM1008.485 761.592l-129.086 152.235h-112.578l77.514-152.235v-43.008c0-45.335 36.771-82.075 82.106-82.075s82.044 36.74 82.044 82.075v43.008zM512.031 636.509c45.335 0 82.075 36.74 82.075 82.075v43.008l-25.817 152.235h-112.547l-25.817-152.235v-43.008c-0.031-45.335 36.74-82.075 82.106-82.075zM222.736 718.584v0c0-45.335 36.771-82.075 82.106-82.075s82.106 36.74 82.106 82.075v43.008l25.755 152.266h-112.547l-77.421-152.266v-43.008zM637.083 718.584v0c0-45.335 36.802-82.075 82.106-82.075 45.366 0 82.106 36.74 82.106 82.075v43.008l-77.514 152.235h-112.516l25.817-152.235v-43.008zM179.696 718.584v43.008l77.421 152.235h-112.547l-129.024-152.235v-43.008h-0.031c0-45.335 36.771-82.075 82.106-82.075s82.075 36.74 82.075 82.075z" />
<glyph unicode="&#xe94a;" glyph-name="uniE94A" d="M1021.963 448.005c0-282.773-229.233-512.005-512.005-512.005s-512.005 229.233-512.005 512.005c0 282.773 229.233 512.005 512.005 512.005s512.005-229.233 512.005-512.005z" />
<glyph unicode="&#xe94b;" glyph-name="uniE94B" d="M445.4 774.318c0-48.616-39.419-88.035-88.035-88.035s-88.035 39.419-88.035 88.035 39.419 88.035 88.035 88.035 88.035-39.419 88.035-88.035v0z" />
<glyph unicode="&#xe94c;" glyph-name="uniE94C" d="M736.399 774.256c0-48.616-39.419-88.035-88.035-88.035s-88.035 39.419-88.035 88.035c0 48.616 39.419 88.035 88.035 88.035s88.035-39.419 88.035-88.035v0z" />
<glyph unicode="&#xe94d;" glyph-name="uniE94D" d="M703.808 90.754c0-25.721 20.899-46.548 46.61-46.548 25.773 0 46.61 20.91 46.61 46.6l-0.062 63.571h-93.231l0.073-63.623z" />
<glyph unicode="&#xe94e;" glyph-name="uniE94E" d="M208.899 384.144l-0.187-293.327c0-25.701 20.899-46.6 46.61-46.6 25.773 0 46.61 20.826 46.61 46.548l0.187 277.551c19.268 7.628 35.542 22.531 40.541 45.748l15.381 71.885c24.526-28.59 65.015-45.051 137.274-54.935 1.569-0.187 3.139-0.301 4.635-0.301 14.456 0 27.207 9.197 32.030 22.572 56.556 3.003 91.599 14.643 114.442 38.608l16.701-77.912c4.313-20.141 17.2-33.963 33.152-42.339h22.157c4.749 13.437 14.394 24.516 27.083 31.157-11.504 55.184-27.592 109.36-41.352 142.345-9.447 17.324 3.689 23.269 10.704 5.311 7.005-17.958 33.152-99.788 43.919-153.361-16.212-4.936-28.527-18.571-31.406-35.605h-65.815v-194.453h263.345v194.536h-65.815c-2.879 17.075-15.454 30.834-31.791 35.646 0.187 2.879 0.125 5.705-0.499 8.647-4.323 22.271-57.813 232.064-57.813 232.064-7.576 35.417-32.102 52.43-62.573 53.251h-0.249c0 0-10.756-0.062-20.016-1.808-9.707-1.881-18.208-6.506-18.208-6.506-22.468-10.891-43.929-33.412-46.548-60.754-0.374-1.309-0.811-2.629-1.008-4.001-5.934-41.798-11.889-68.258-24.651-79.897-13.209-12.014-42.858-17.335-96.161-17.335-12.336 0-23.030-6.63-29.037-16.389-32.165 6.568-51.183 14.892-61.191 26.459-13.022 15.017-17.771 42.983-24.038 87.224-0.187 1.382-0.624 2.629-0.935 3.939-2.692 27.343-24.152 49.863-46.673 60.817 0 0-8.449 4.625-18.145 6.506-9.26 1.746-20.026 1.819-20.026 1.819h-0.239c-30.533-0.873-66.387-17.896-73.953-53.251l-40.738-190.088c-5.425-25.41 5.965-48.117 24.298-63.768v0zM793.215 365.063c2.193 0 4.375 0.187 6.568 0.634 7.451 1.445 13.697 5.259 18.519 10.455 8.013-1.445 14.518-7.15 17.262-14.653h-84.657c2.702 7.514 9.208 13.209 17.272 14.591 6.329-6.828 15.339-11.026 25.035-11.026v0z" />
<glyph unicode="&#xe94f;" glyph-name="non-publie" d="M932.336 924.253h-840.673c-42.046 0-76.148-34.133-76.148-76.117v-609.156c0-42.015 34.102-76.117 76.148-76.117h306.114v-112.547h-114.098v-76.179h456.704v76.179h-114.192v112.547h306.145c42.046 0 76.148 34.133 76.148 76.117v609.156c0 41.984-34.102 76.117-76.148 76.117zM932.336 275.378h-840.673v572.757h840.673v-572.757zM677.795 683.582l-58.12 58.12-120.615-120.584-120.615 120.615-58.12-58.151 120.615-120.615-120.615-120.584 58.12-58.12 120.615 120.584 120.615-120.553 58.12 58.089-120.584 120.584z" />
<glyph unicode="&#xe950;" glyph-name="organigramme" d="M932.368 227.033v260.251h-382.293v184.041h76.117v228.445h-228.445v-228.445h76.179v-184.041h-382.293v-260.251h-76.117v-228.414h228.414v228.414h-76.117v184.103h306.114v-184.103h-76.179v-228.414h228.445v228.414h-76.117v184.103h306.238v-184.103h-76.179v-228.414h228.352v228.414z" />
<glyph unicode="&#xe951;" glyph-name="pancarte" d="M944.252 572.711h-61.75l-256.652 228.197c-6.547-12.319-14.957-23.366-24.979-32.923l219.695-195.243h-617.069l219.695 195.243c-9.961 9.557-18.463 20.604-24.948 32.923l-256.714-228.197h-61.75c-34.102 0-61.75-27.648-61.75-61.781v-494.002c0-34.071 27.679-61.75 61.75-61.75h864.473c34.071 0 61.75 27.71 61.75 61.75v494.002c0 34.133-27.648 61.781-61.75 61.781zM594.323 860.827c0-45.466-36.857-82.323-82.323-82.323s-82.323 36.857-82.323 82.323c0 45.466 36.857 82.323 82.323 82.323s82.323-36.857 82.323-82.323z" />
<glyph unicode="&#xe952;" glyph-name="publie" d="M425.643 616.184v71.246h-35.995v-35.25l-74.069 74.038-4.561-4.499-154.469-154.345 26.252-26.252 132.748 132.655 132.561-132.437 26.19 26.221zM315.454 639.457l-0.031 0.031-110.22-110.127v-120.894h220.439v120.894l-110.158 110.127zM534.497 663.288h317.781v-50.859h-317.781v50.859zM534.497 561.571h317.781v-50.828h-317.781v50.828zM534.497 459.916h317.781v-50.828h-317.781v50.828zM932.336 924.253h-840.673c-42.046 0-76.148-34.133-76.148-76.117v-609.156c0-42.015 34.102-76.117 76.148-76.117h306.114v-112.547h-114.098v-76.179h456.704v76.179h-114.192v112.547h306.145c42.046 0 76.148 34.133 76.148 76.117v609.156c0 41.984-34.102 76.117-76.148 76.117zM932.336 275.378h-840.673v572.757h840.673v-572.757z" />
<glyph unicode="&#xe953;" glyph-name="rdv-visite" d="M512.062 820.922c-99.328 0-184.475-73.325-199.649-170.76-14.957 4.686-30.937 7.261-47.352 7.261-44.342 0-84.651-18.029-113.633-46.98-29.106-29.106-47.166-69.384-47.166-113.788 0-42.418 16.539-80.896 43.318-109.506l-38.229-38.353c-16.818-16.974-29.696-35.871-38.322-56.785h-0.093c-8.688-20.914-13.095-43.504-13.095-67.274v-47.756c0-12.412 4.003-25.755 11.357-35.871 7.882-11.202 19.487-19.084 34.444-21.101 1.148 0 2.296-0.124 3.413-0.124h36.864v-13.033c0-16.229 13.219-29.386 29.479-29.386h677.143c16.291 0 29.51 13.157 29.51 29.386v13.033h36.864c1.086 0 2.296 0.124 3.444 0.124 14.895 1.986 26.531 9.868 34.413 21.101 7.261 10.116 11.326 23.459 11.326 35.871v47.756c0 23.769-4.437 46.359-13.157 67.274v0c-8.595 20.914-21.504 39.812-38.353 56.785l-38.291 38.353c26.841 28.61 43.318 67.088 43.318 109.506 0 44.404-17.998 84.682-47.042 113.788-29.044 28.951-69.322 46.98-113.633 46.98-16.477 0-32.365-2.576-47.507-7.261-15.081 97.404-100.104 170.76-199.37 170.76v0zM421.174 136.363v0 26.345l-0.248 2.607v104.572c0 9.712-7.882 17.687-17.563 17.687-9.744 0-17.687-8.006-17.687-17.687v-77.762h-76.179c-0.9 1.831-1.427 4.437-1.427 6.858v62.526c0 22.621 4.003 43.504 11.823 62.433v0.31c4.655 11.388 11.016 22.435 18.835 32.737v0.186h0.062l0.496 0.434 0.124 0.31 0.248 0.496 0.372 0.31c4.624 6.175 9.93 12.133 15.701 17.998l63.085 63.178c58.058-30.161 128.341-30.161 186.337 0l63.147-63.178c5.834-5.865 11.078-11.823 15.763-17.998l0.31-0.31 0.31-0.496 0.124-0.31 0.496-0.434v-0.186c7.882-10.302 14.119-21.349 18.897-32.737v-0.31c7.82-18.897 11.823-39.812 11.823-62.433v-62.557c0-2.42-0.559-5.027-1.52-6.858h-76.055v77.793c0 9.712-7.944 17.687-17.687 17.687-9.712 0-17.687-8.006-17.687-17.687v-104.541l-0.124-2.607v-26.345l-181.776-0.031zM369.043 619.101v0c0 78.786 64.078 142.864 143.019 142.864 78.786 0 142.957-64.078 142.957-142.864 0-186.833-285.975-186.833-285.975 0v0zM820.72 136.363v0h-85.644c11.078 3.941 20.015 11.202 26.655 20.79 8.533 11.947 13.095 27.276 13.095 41.829v62.526c0 26.252-4.065 51.2-12.288 74.535 23.645 0.31 45.925 6.051 66.064 15.639l44.373-44.435c11.512-11.326 20.232-24.235 25.755-37.702l0.062-0.186h-0.062c5.71-13.622 8.471-28.486 8.471-44.653v-45.925h-51.138v52.131c0 9.712-7.882 17.749-17.625 17.749s-17.687-8.068-17.687-17.749v-94.549h-0.031zM711.401 586.83v0c5.461 2.886 11.016 5.306 16.974 6.982 9.526 3.041 19.828 4.686 30.658 4.686 28.051 0 53.589-11.357 71.99-29.851 18.37-18.339 29.758-43.784 29.758-71.959 0-28.020-11.388-53.651-29.758-72.114v0.155c-18.432-18.494-43.939-29.851-71.99-29.851-7.261 0-14.057 0.621-20.294 1.831v0.31c-4.251 0.621-8.409 1.831-12.35 3.227-5.151 6.33-10.612 12.257-16.353 17.998h-0.124l-56.599 56.661 1.396 1.21v0.155h0.031l0.062 0.155c26.376 26.221 44.622 59.547 53.589 95.449l0.124 0.9 0.248 0.745 0.062 0.155 0.186 0.9 1.769 8.471 0.062 0.31 0.062 0.621 0.248 0.9 0.248 1.955zM203.28 136.363v0 94.549c0 9.712-7.882 17.749-17.625 17.749-9.775 0-17.656-8.068-17.656-17.749v-52.131h-51.2v45.925c0 16.167 2.886 31.030 8.471 44.653h-0.093l0.093 0.186c5.616 13.467 14.243 26.376 25.848 37.702l44.311 44.435c20.139-9.588 42.48-15.329 66.064-15.639-8.192-23.335-12.35-48.314-12.35-74.535v-62.557c0-14.553 4.624-29.882 13.126-41.829 6.672-9.588 15.608-16.849 26.748-20.79l-85.737 0.031zM312.692 586.83v0l0.31-1.955 0.155-0.9 0.155-0.621v-0.31l1.769-8.471 0.217-0.9v-0.155l0.217-0.745 0.248-0.9c8.844-35.902 27.12-69.229 53.589-95.449l0.062-0.155 1.365-1.365-56.568-56.661c-5.927-5.772-11.388-11.667-16.353-17.998-4.127-1.396-8.285-2.607-12.505-3.227v-0.31c-6.144-1.21-12.878-1.831-20.201-1.831-28.113 0-53.589 11.357-71.99 29.851l-0.062-0.155c-18.463 18.463-29.882 44.063-29.882 72.083 0 28.176 11.419 53.651 29.82 71.959 18.432 18.494 43.877 29.851 71.99 29.851 10.83 0 21.132-1.676 30.596-4.686 5.896-1.645 11.667-4.096 17.067-6.951v0z" />
<glyph unicode="&#xe954;" glyph-name="reporting-nego" d="M91.632 28.812v916.852h-76.117v-992.97h992.97v76.117zM504.211 197.834l356.662 408.080 147.611-168.681v170.853l-147.611 168.619-356.662-408.017-157.044 179.417h-179.417v-112.547h128.434z" />
<glyph unicode="&#xe955;" glyph-name="reseau" d="M658.742 615.284c0 0-84.309 21.535-96.194 44.994-5.43 10.736-0.062 24.483 5.337 33.916 2.482 3.32 4.903 6.827 7.199 10.519v0.062c14.088 22.342 24.824 51.79 25.941 88.219 1.645 54.737-40.96 99.173-91.539 99.297v0c-0.031 0-0.093 0-0.124 0 0 0-0.062 0-0.093 0v0c-50.579-0.124-93.184-44.591-91.539-99.297 1.086-36.399 11.823-65.877 25.879-88.219v0l0.031-0.031c2.327-3.724 4.748-7.199 7.199-10.519 5.43-9.433 10.799-23.18 5.337-33.916-11.854-23.459-96.194-44.994-96.194-44.994-16.198-5.368-27.896-20.635-27.896-38.602v-37.019h354.552v37.019c0 17.936-11.667 33.202-27.896 38.571zM622.22 235.256c-4.313 0-8.502 1.21-12.164 3.568l-94.518 65.505c-1.489 0.9-3.196 1.396-4.81 1.396-1.707 0-3.351-0.496-4.81-1.396l-94.549-65.505c-3.662-2.358-7.882-3.568-12.195-3.568-7.913 0-15.143 4.003-19.363 10.674-3.227 5.151-4.313 11.264-2.948 17.222 1.303 5.989 4.903 11.078 10.116 14.367l96.132 66.56c2.638 1.645 4.22 4.499 4.22 7.633v113.23c0 12.629 10.271 22.838 22.869 22.838s22.838-10.24 22.838-22.838v-112.547c0-3.103 1.614-5.989 4.22-7.696l97.218-67.15c5.182-3.258 8.72-8.378 10.054-14.367 1.334-5.927 0.341-12.071-2.948-17.222-4.189-6.734-11.419-10.705-19.363-10.705zM341.737 81.656c0 0-84.278 21.566-96.194 45.025-5.399 10.736-0.062 24.483 5.368 33.885 2.451 3.32 4.872 6.858 7.199 10.55v0.062c14.057 22.311 24.793 51.821 25.91 88.188 1.645 54.737-40.96 99.204-91.539 99.328v0c-0.031 0-0.093 0-0.124 0 0 0-0.062 0-0.093 0v0c-50.579-0.124-93.184-44.622-91.508-99.328 1.055-36.368 11.823-65.877 25.848-88.188v0l0.031-0.062c2.327-3.693 4.748-7.199 7.199-10.55 5.43-9.402 10.799-23.149 5.337-33.885-11.854-23.459-96.163-45.025-96.163-45.025-16.229-5.337-27.927-20.604-27.927-38.602v-36.957h354.552v36.957c0 17.998-11.667 33.264-27.896 38.602zM980.961 81.656c0 0-84.278 21.566-96.163 45.025-5.399 10.736-0.062 24.483 5.337 33.885 2.482 3.32 4.903 6.858 7.23 10.55v0.062c14.057 22.311 24.793 51.821 25.879 88.188 1.676 54.737-40.96 99.204-91.508 99.328v0c-0.031 0-0.093 0-0.124 0 0 0-0.062 0-0.124 0v0c-50.548-0.124-93.184-44.622-91.508-99.328 1.086-36.368 11.823-65.877 25.879-88.188v0l0.031-0.062c2.327-3.693 4.717-7.199 7.199-10.55 5.43-9.402 10.799-23.149 5.337-33.885-11.854-23.459-96.194-45.025-96.194-45.025-16.198-5.337-27.896-20.604-27.896-38.602v-36.957h354.552v36.957c0.031 17.998-11.667 33.264-27.927 38.602z" />
<glyph unicode="&#xe956;" glyph-name="reserver-formation" d="M1008.485 563.184l-496.485 190.247-496.485-190.247 496.485-190.247zM512 291.483l-304.5 116.674v-149.101c0-62.96 136.347-114.129 304.5-114.129s304.5 51.138 304.5 114.129v149.101l-304.5-116.674z" />
<glyph unicode="&#xe957;" glyph-name="sauvegarder" d="M590.289 773.57h92.067v-150.714h-92.067v150.714zM777.402 940.73h-756.922v-983.102h983.040v756.953l-226.118 226.149zM285.882 829.331h452.236v-262.144h-452.236v262.144zM851.223 69.089h-678.384v380.369h678.26v-380.369h0.124z" />
<glyph unicode="&#xe958;" glyph-name="uniE958" d="M1024.010 447.995c0-282.773-229.233-512.005-512.005-512.005s-512.005 229.233-512.005 512.005c0 282.773 229.233 512.005 512.005 512.005s512.005-229.233 512.005-512.005z" />
<glyph unicode="&#xe959;" glyph-name="uniE959" d="M772.295 748.316c-0.301-0.977-0.738-1.943-1.341-2.816l-53.833-78.359c-2.723-3.939-7.763-5.56-12.263-3.897l-129.864 47.67-129.667 48.356c-4.521 1.684-7.296 6.225-6.745 10.995l10.735 94.8c0.135 1.091 0.416 2.13 0.863 3.097-7.379 5.757-10.548 15.838-7.108 25.056 4.24 11.369 16.94 17.168 28.309 12.928 11.38-4.24 17.168-16.94 12.939-28.309-2.39-6.402-7.472-11.047-13.469-13.115l16.877-37.34c4.282-9.447 12.294-16.919 21.99-20.546 11.473-4.282 24.453-2.91 34.732 3.648l66.429 42.328c-2.349 5.123-2.744 11.151-0.624 16.825 4.24 11.38 16.94 17.168 28.33 12.939 11.359-4.24 17.168-16.94 12.918-28.319-2.047-5.508-6.111-9.707-11.037-12.086 0.010-0.021 0.021-0.042 0.031-0.062l22.105-75.522c3.44-11.785 12.367-21.377 23.882-25.669 9.79-3.658 20.421-3.274 29.941 1.081l37.371 17.064c-3.284 5.539-4.136 12.44-1.725 18.925 4.24 11.359 16.94 17.168 28.309 12.928 11.38-4.24 17.168-16.94 12.939-28.309-3.336-8.958-11.941-14.446-21.024-14.29v0zM700.524 629.063c2.016 5.425-0.738 11.463-6.163 13.479l-254.002 94.717c-5.414 2.016-11.452-0.738-13.479-6.163l-8.792-23.57c-2.016-5.414 0.738-11.452 6.163-13.479l254.002-94.717c5.414-2.016 11.463 0.727 13.479 6.152l8.792 23.58z" />
<glyph unicode="&#xe95a;" glyph-name="uniE95A" d="M604.758 610.117l-19.143 7.14c-12.357-18.769-27.457-40.406-34.285-47.535 25.399 14.196 42.557 27.322 53.428 40.395z" />
<glyph unicode="&#xe95b;" glyph-name="uniE95B" d="M670.282 503.813c6.568 28.496 10.268 55.527 9.436 79.471-2.349 0.197-4.666 0.613-6.901 1.445l-59.414 22.157c11.983-43.347 36.114-75.875 32.435-98.687-14.082-78.089-61.825-190.4-133.886-190.4-55.371 0-95.278 72.176-113.101 116.385-8.813 21.897-16.441 46.974-20.91 71.978v0.042c-2.515 18.124 6.62 45.966 8.563 73.101 107.5-36.135 153.85 6.973 198.984 37.974l-166.705 62.157c-3.274 1.226-6.142 3.055-8.553 5.3-29.702-19.538-52.835-47.109-60.546-82.828-6.578-30.398-3.003-67.821 3.897-98.105-7.711 1.393-14.861 0.083-17.21-8.387-8.033-28.797 17.823-68.902 41.165-66.553 27.197-68.975 74.493-130.633 134.416-130.633s107.209 61.669 134.416 130.633c23.664-2.411 49.198 37.756 41.165 66.553-2.307 8.501-9.499 9.8-17.251 8.397z" />
<glyph unicode="&#xe95c;" glyph-name="uniE95C" d="M715.874 2.2v-23.892c41.913 18.218 80.884 41.892 116.084 70.108-7.264 53.396-17.657 101.524-32.217 130.841-26.875 54.394-107.583 60.817-161.572 81.757-18.062-72.196-51.754-159.036-85.208-225.828l-21.803 136.962 7.472 29.452-26.667 17.636-26.636-17.636 7.472-29.452-21.803-136.973c-15.183 30.263-30.367 64.672-44.168 99.944-1.621 4.136-3.211 8.304-4.791 12.461-0.686 1.767-1.341 3.554-1.985 5.321-1.299 3.409-2.557 6.817-3.772 10.226-0.769 2.068-1.507 4.157-2.276 6.256-1.091 3.087-2.193 6.194-3.253 9.28-0.811 2.276-1.58 4.51-2.359 6.776-0.977 2.879-1.954 5.768-2.92 8.626-0.811 2.39-1.58 4.749-2.359 7.15-0.894 2.744-1.746 5.435-2.64 8.158-0.727 2.432-1.538 4.916-2.276 7.347-0.811 2.598-1.58 5.196-2.359 7.774-0.727 2.473-1.507 4.957-2.193 7.431-0.727 2.515-1.465 5.009-2.151 7.514-0.686 2.473-1.424 4.957-2.068 7.389-0.686 2.577-1.341 5.092-1.985 7.628-0.572 2.172-1.174 4.406-1.704 6.558-0.083-0.021-0.166-0.062-0.239-0.083-3.045-1.195-6.215-2.338-9.416-3.43-0.208-0.062-0.447-0.145-0.655-0.218-3.253-1.112-6.578-2.172-9.904-3.211-52.201-16.202-117.684-26.854-141.358-74.815-14.549-29.307-24.952-77.393-32.227-130.768 87.681-70.326 198.912-112.488 320.046-112.488 67.956 0 132.753 13.354 192.084 37.402h-81.020v28.797h92.825z" />
<glyph unicode="&#xe95d;" glyph-name="synoptique-exportation" d="M792.39 274.789h-143.825l-293.112 507.687-0.372-0.248v0.248h-339.44v-158.844h248.118l293.112-507.687 0.186 0.124v-0.124h235.334v-135.882l215.288 215.257-215.288 215.288zM793.104 623.632v-135.882l215.257 215.288-215.257 215.257v-135.82h-275.394l91.881-158.844zM15.639 274.789v-158.844h378.818l-91.881 158.844z" />
<glyph unicode="&#xe95e;" glyph-name="telephone" d="M961.319 276.092c0.217 5.741-2.017 11.202-6.175 15.081l-199.711 188.106c-4.003 3.724-9.34 5.679-14.864 5.306-5.461-0.403-10.519-3.072-13.933-7.323-10.302-12.971-46.173-49.866-74.659-49.866-7.789 0-14.367 2.793-20.666 8.844-50.238 47.973-156.362 156.362-157.013 156.982-1.365 1.614-33.078 39.408 25.476 115.216 5.585 7.323 5.43 17.47-0.465 24.545l-157.913 190.433c-6.144 7.385-16.756 9.309-25.135 4.375-4.096-2.607-102.772-62.061-121.018-170.853-12.257-73.449 15.112-150.156 81.33-228.042 0.341-0.403 0.714-0.776 1.055-1.179l253.58-253.549c3.475-3.848 86.575-94.27 214.885-94.27 11.109 0 22.218 0.9 33.327 2.265 4.127-21.318 5.399-69.291-47.476-122.197-22.838-22.838-49.804-27.089-68.67-26.531-34.785 0.962-72.021 18.835-97.063 46.732-0.279 0.341-0.59 0.652-0.9 0.962l-286.348 293.826c-0.869 0.9-1.831 1.8-2.824 2.607-30.348 24.545-104.82 54.675-170.015-6.578-63.953-60.075-43.877-137.588-24.328-170.139 1.365-2.296 3.041-4.437 4.903-6.299l116.395-116.426c12.784-12.722 33.513-12.722 46.297 0 12.753 12.784 12.753 33.513 0 46.297l-113.105 113.105c-5.648 11.264-21.814 51.572 14.646 85.799 36.305 34.164 73.169 11.326 82.789 4.313l284.207-291.623c37.143-41.115 90.733-66.529 143.515-67.894 1.676-0.062 3.289-0.124 4.934-0.124 43.194 0 81.796 15.825 111.802 45.801 74.907 74.969 72.363 148.077 64.76 183.917 37.485 13.56 74.628 34.754 110.995 64.016 4.468 3.382 7.137 8.72 7.385 14.367z" />
<glyph unicode="&#xe95f;" glyph-name="terrain" d="M325.415 918.264c49.493 19.797 100.197-12.847 129.427-51.479 55.668-73.014 82.292-162.692 109.94-248.987-57.22-98.832-92.315-210.013-104.727-323.367-7.416-48.252 10.985-94.332 26.779-138.705-31.248-13.467-63.085-25.848-95.418-36.678 0.279-32.334 0.434-64.636 0.9-97.125 78.414-0.31 156.796-1.552 235.21-2.017 0.155 21.814 0.496 43.473 0.807 65.164-78.414 23.49-144.291 92.75-143.67 177.804 4.158 109.32 36.492 218.050 87.381 314.833 21.938 41.425 69.415 91.105 120.18 63.891 62.867-39.595 84.868-117.543 107.458-184.196 22.249-88.623 55.513-187.92 12.816-275.549-23.49-51.355-76.086-78.755-126.79-96.659 0-21.969-0.155-43.939-0.155-66.064 93.556-0.745 187.082-1.086 280.824-2.172-0.186-12.319-0.186-36.802-0.186-49.152-296.836 4.81-593.92 5.741-890.973 10.085-0.465 16.229-0.931 32.303-1.396 48.252 78.383 0 156.827-1.707 235.365-2.482 0.155 31.992 0.465 63.891 1.055 95.728-120.77 27.369-212.154 141.964-206.91 266.457 8.502 127.1 42.822 252.059 91.881 369.292 29.541 62.588 63.085 133.865 130.203 163.126z" />
<glyph unicode="&#xe960;" glyph-name="zone-geographique" d="M512 945.664c-274.184 0-496.485-222.239-496.485-496.485 0-274.184 222.301-496.485 496.485-496.485 274.215 0 496.485 222.301 496.485 496.485 0 274.246-222.27 496.485-496.485 496.485zM512 65.303c-212.030 0-383.938 171.877-383.938 383.876 0 212.061 171.908 384 383.938 384 212.061 0 383.969-171.939 383.969-384 0-211.999-171.908-383.876-383.969-383.876zM663.583 449.924l-151.583 303.818-151.552-303.818h-0.683l0.372-0.714-0.372-0.652h0.683l151.552-303.849 151.583 303.818h0.652l-0.31 0.652 0.31 0.714h-0.652zM513.893 392.952c-31.061 0-56.258 25.228-56.258 56.258 0 31.092 25.228 56.258 56.258 56.258 31.092 0 56.289-25.166 56.289-56.258 0-31.061-25.197-56.258-56.289-56.258z" />
<glyph unicode="&#xe961;" glyph-name="zoom-in" d="M450.746 700.711h-76.117v-114.192h-114.16v-76.055h114.16v-114.254h76.117v114.254h114.223v76.055h-114.223zM744.076 329.495c41.581 62.774 65.815 138.054 65.815 218.981 0 219.384-177.804 397.219-397.188 397.219s-397.188-177.835-397.188-397.25c0-219.322 177.804-397.157 397.188-397.157 80.927 0 156.238 24.235 219.043 65.815l264.409-264.409 112.33 112.361-264.409 264.44zM412.703 263.742c-157.168 0-284.641 127.441-284.641 284.672s127.441 284.641 284.641 284.641c157.2 0 284.672-127.441 284.672-284.672s-127.472-284.641-284.672-284.641z" />
<glyph unicode="&#xe962;" glyph-name="zoom-out" d="M260.468 586.519h304.5v-76.117h-304.5v76.117zM744.076 329.495c41.581 62.774 65.815 138.054 65.815 218.981 0 219.384-177.804 397.219-397.188 397.219-219.353-0.031-397.188-177.835-397.188-397.25 0-219.322 177.835-397.157 397.188-397.157 80.958 0 156.238 24.235 219.043 65.815l264.409-264.409 112.33 112.299-264.409 264.502zM412.703 263.742c-157.2 0-284.672 127.441-284.672 284.672s127.441 284.579 284.672 284.579 284.672-127.379 284.672-284.61-127.472-284.641-284.672-284.641z" />
<glyph unicode="&#xe963;" glyph-name="uniE963" horiz-adv-x="995" d="M497.631 945.631c-274.817 0-497.631-222.814-497.631-497.662s222.814-497.6 497.631-497.6 497.631 222.752 497.631 497.6-222.814 497.662-497.631 497.662zM746.446 390.772h-497.631v114.455h497.631v-114.455z" />
<glyph unicode="&#xe964;" glyph-name="uniE964" horiz-adv-x="995" d="M497.631 943.796c-274.817 0-497.631-222.814-497.631-497.631 0-274.879 222.814-497.631 497.631-497.631s497.631 222.752 497.631 497.631c0 274.817-222.814 497.631-497.631 497.631zM746.446 388.937h-191.588v-191.588h-114.455v191.588h-191.588v114.455h191.588v191.588h114.455v-191.619h191.588v-114.424z" />
<glyph unicode="&#xe965;" glyph-name="accueil2" horiz-adv-x="1013" d="M856.222 610.895v226.036h-114.341v-111.821l-234.953 234.89-14.462-14.21-490.102-489.85 83.212-83.18 421.226 420.974 420.628-420.313 83.18 83.212zM506.486 684.749l-0.063 0.126-349.641-349.483v-383.638h699.439v383.638l-349.609 349.483z" />
<glyph unicode="&#xe966;" glyph-name="acquereurs2" horiz-adv-x="1080" d="M908.668 696.948v0c17.807 77.349 14.647 143.968-46.837 164.473-12.672 81.694-240.374 59.575-267.989-68.166-6.451-29.82-2.929-66.586 3.818-96.308-7.57 1.382-14.614 0.066-16.852-8.229-7.899-28.273 17.51-67.672 40.452-65.368 26.694-67.738 73.103-128.267 131.954-128.267 58.818 0 105.26 60.53 131.954 128.267 23.27-2.37 48.351 37.095 40.452 65.368-2.304 8.327-9.348 9.611-16.951 8.229zM825.658 808.561c-12.145-18.498-27.056-39.892-33.77-46.903 29.919 16.721 48.351 31.96 58.258 47.364 10.302-48.055 38.444-83.537 34.56-107.762-13.857-76.658-60.727-186.954-131.46-186.954-54.408 0-93.576 70.865-111.086 114.279-8.656 21.493-16.095 46.113-20.506 70.667v0.066c-2.501 17.807 6.517 45.126 8.426 71.786 105.688-35.548 151.209 7.011 195.577 37.457v0zM753.213 417.571l-26.134-17.346 7.307-28.932-21.394-134.488c-32.849 65.565-65.96 150.88-83.701 221.777-6.418-2.501-13.232-4.806-20.308-7.011 12.771-33.441 17.905-69.614 14.68-106.083-5.53-63.261-35.975-121.75-84.59-162.564-32.289-27.056-70.634-44.862-111.185-52.202-0.527-8.755-0.955-17.412-1.382-25.904-0.329-7.537 2.139-14.186 7.373-19.65s11.718-8.262 19.321-8.262h600.062c7.537 0 14.12 2.798 19.321 8.262s7.702 12.113 7.373 19.65c-4.443 97.262-16.951 218.716-44.138 273.486-26.397 53.42-105.622 59.674-158.615 80.278-17.774-70.898-50.853-156.212-83.701-221.777l-21.394 134.488 7.34 28.932-26.233 17.346zM862.324 204.384h91.14v-28.273h-91.14v28.273zM241.263 206.326c88.606-74.321 220.724-62.768 295.045 25.838 74.387 88.573 62.768 220.691-25.838 295.045-88.573 74.354-220.724 62.801-295.045-25.805-74.354-88.606-62.768-220.691 25.838-295.078zM268.779 456.673c49.635 59.18 137.846 66.915 196.993 17.247 59.213-49.668 66.882-137.846 17.247-197.026-49.701-59.18-137.878-66.882-197.026-17.214-59.147 49.635-66.915 137.846-17.214 196.993zM237.082 133.486l22.481 26.759c3.39 3.983 2.831 10.039-1.185 13.363l-52.301 43.908c-4.048 3.39-10.039 2.864-13.429-1.152l-22.481-26.792c-3.357-4.016-2.831-10.039 1.218-13.429l52.268-43.875c4.081-3.357 10.039-2.831 13.429 1.218zM5.299 7.819l81.43-68.33c6.221-5.266 15.601-4.443 20.868 1.843l122.771 146.337c5.299 6.221 4.443 15.601-1.81 20.901l-81.397 68.264c-6.287 5.266-15.634 4.443-20.901-1.843l-122.738-146.337c-5.332-6.254-4.509-15.634 1.777-20.835z" />
<glyph unicode="&#xe967;" glyph-name="acquereurt-enrgistre2" horiz-adv-x="995" d="M385.757 670.597c-12.441-5.318-24.291-11.757-35.238-19.065-10.948-7.527-21.554-16.017-30.978-25.504v0-0.062c-9.424-9.486-17.915-19.905-25.504-30.915-7.278-11.010-13.965-22.767-19.128-35.238-3.639-8.895 0.622-19.221 9.735-23.078 8.802-3.794 19.128 0.467 22.767 9.331 4.261 10.264 9.735 20.061 16.111 29.174 6.065 9.331 13.374 18.070 21.274 25.815v-0.062c7.9 7.962 16.391 15.116 25.504 21.274 9.424 6.22 19.128 11.632 29.174 15.8 9.113 3.888 13.374 14.214 9.424 23.078-3.701 9.020-14.027 13.187-23.14 9.455v0zM841.369 145.72v0l-127.269 127.518c20.652 24.788 37.664 52.593 49.825 82.545 15.8 37.975 24.602 79.652 24.602 123.008 0 42.89-8.491 83.913-23.98 121.484l-0.622 1.68c-15.8 38.566-39.188 73.432-68.331 102.885l-1.524 1.431c-29.454 29.547-65.003 53.526-104.191 69.793h-0.311c-37.975 15.706-79.279 24.446-122.697 24.446-88.983 0-169.474-36.078-227.48-94.239-29.454-29.547-53.464-64.91-69.855-104.471-15.8-38.038-24.291-79.59-24.291-123.008 0-42.765 8.491-83.758 23.7-121.36l0.622-1.648c16.391-39.437 40.401-74.769 69.855-104.409v0c29.765-29.578 65.003-53.464 104.191-69.793v0.124l0.311-0.124c37.975-15.675 79.59-24.353 123.008-24.353s85.033 8.74 123.008 24.353c30.076 12.565 57.694 29.454 82.607 49.981l127.58-127.58c11.539-11.414 30.076-11.414 41.614 0.249 11.166 11.446 11.166 30.076-0.373 41.49v0zM652.456 293.237v0-0.062l-0.311-0.498c-24.291-24.042-52.842-43.387-85.033-56.543-30.667-12.752-64.692-19.936-100.242-19.936-35.829 0-69.544 6.998-100.521 19.874v0.062c-32.19 13.312-61.053 32.875-85.344 57.041v0.062c-23.98 24.228-43.729 53.215-57.103 85.157l-0.622 1.462c-12.161 30.387-19.128 63.883-19.128 98.966 0 35.829 6.998 69.855 19.75 100.615 13.374 31.879 32.813 60.835 57.103 85.126 47.679 47.524 113.304 76.915 185.896 76.915 35.55 0 69.544-7.060 100.521-19.75l-0.311-0.062c32.19-13.281 61.053-32.719 85.344-57.103l1.524-1.368c23.7-23.855 42.516-52.313 55.579-83.913l0.622-1.431c12.441-30.449 19.128-63.79 19.128-99.029 0-35.612-6.998-69.606-19.75-100.428-13.374-32.19-32.813-61.053-57.103-85.157v0zM657.308 496.581v0c-10.015 0-17.915-7.962-17.915-17.759 0-22.487-4.261-45.191-13.063-66.216l-0.311-0.653c-8.211-20.061-20.652-38.753-37.042-55.206-16.702-16.453-35.829-29.174-55.89-37.54-21.274-8.677-43.729-13.125-66.216-13.125-9.735 0-17.915-7.838-17.915-17.604s8.211-17.728 17.915-17.728c27.028 0 54.055 5.287 79.59 15.862 24.602 10.139 47.679 25.286 67.74 45.191 19.439 19.563 34.616 42.392 44.662 66.714l0.311 0.622c10.637 25.535 15.8 52.718 15.8 79.745-0.062 9.704-7.962 17.697-17.666 17.697v0z" />
<glyph unicode="&#xe968;" glyph-name="action-automatique2" horiz-adv-x="995" d="M988.886 526.999h-155.447c6.065-25.846 9.237-52.469 9.237-79.559 0-46.591-9.113-91.72-27.090-134.080-17.386-41.055-42.268-77.941-73.991-109.634-31.755-31.662-68.642-56.543-109.697-73.929-42.485-17.915-87.614-26.965-134.267-26.965s-91.844 9.051-134.236 26.965c-41.055 17.386-78.004 42.268-109.759 73.929-31.724 31.724-56.606 68.58-73.991 109.634-17.915 42.33-27.028 87.49-27.028 134.080 0 46.622 9.113 91.72 27.028 134.143 17.386 41.023 42.268 77.91 73.991 109.572 31.755 31.724 68.704 56.606 109.759 73.96 42.392 17.946 87.583 27.028 134.236 27.028s91.782-9.082 134.236-26.996c18.039-7.62 35.238-16.733 51.629-27.183l-97.38-97.225h305.234v304.892l-98.251-98.158c-82.607 61.053-184.839 97.131-295.468 97.131-274.879 0-497.631-222.565-497.631-497.133 0-274.506 222.752-497.071 497.631-497.071 274.817 0 497.631 222.565 497.631 497.071 0 27.090-2.177 53.62-6.376 79.528z" />
<glyph unicode="&#xe969;" glyph-name="uniE969" d="M1024.010 448.005c0-282.773-229.233-512.005-512.005-512.005s-512.005 229.233-512.005 512.005c0 282.773 229.233 512.005 512.005 512.005s512.005-229.233 512.005-512.005z" />
<glyph unicode="&#xe96a;" glyph-name="uniE96A" d="M377.724 428.696c27.197-68.975 74.493-130.612 134.416-130.612s107.209 61.648 134.416 130.612c23.664-2.411 49.198 37.777 41.165 66.564-2.318 8.48-9.499 9.779-17.251 8.387 18.145 78.744 14.944 146.627-47.701 167.537-12.907 83.202-244.794 60.65-272.885-69.432-6.578-30.398-3.003-67.821 3.897-98.105-7.711 1.393-14.861 0.083-17.21-8.387-8.054-28.787 17.813-68.902 41.154-66.564zM386.693 579.158c107.697-36.197 154.016 7.15 199.244 38.151-12.377-18.821-27.561-40.593-34.43-47.753 30.491 17.044 49.239 32.549 59.31 48.263 10.476-48.959 39.18-85.062 35.199-109.776-14.082-78.089-61.825-190.39-133.886-190.39-55.371 0-95.278 72.155-113.101 116.364-8.813 21.907-16.441 46.984-20.91 71.999v0.042c-2.505 18.114 6.62 45.955 8.574 73.101z" />
<glyph unicode="&#xe96b;" glyph-name="uniE96B" d="M716.040 2.013v-23.102c41.871 18.353 80.801 42.1 115.938 70.43-7.264 52.96-17.615 100.62-32.071 129.719-26.875 54.415-107.583 60.817-161.572 81.757-18.062-72.196-51.754-159.036-85.208-225.818l-21.803 136.952 7.472 29.452-26.667 17.657-26.636-17.657 7.472-29.452-21.803-136.952c-15.183 30.242-30.367 64.651-44.168 99.923-1.621 4.136-3.211 8.304-4.791 12.461-0.686 1.788-1.341 3.575-1.985 5.321-1.299 3.43-2.557 6.817-3.772 10.226-0.769 2.068-1.507 4.157-2.276 6.256-1.091 3.087-2.193 6.194-3.253 9.301-0.811 2.255-1.58 4.51-2.359 6.776-0.977 2.858-1.954 5.747-2.92 8.626-0.811 2.38-1.58 4.749-2.359 7.129-0.894 2.744-1.746 5.456-2.64 8.158-0.727 2.453-1.538 4.916-2.276 7.347-0.811 2.598-1.58 5.196-2.359 7.774-0.727 2.494-1.507 4.978-2.193 7.431-0.727 2.515-1.465 5.009-2.151 7.535-0.686 2.453-1.424 4.936-2.068 7.368-0.686 2.598-1.341 5.113-1.985 7.649-0.572 2.172-1.174 4.386-1.704 6.537-0.083-0.021-0.166-0.062-0.239-0.083-3.045-1.174-6.215-2.318-9.416-3.409-0.208-0.083-0.447-0.166-0.655-0.239-3.253-1.091-6.578-2.151-9.904-3.19-52.201-16.202-117.684-26.875-141.358-74.836-14.633-29.452-25.067-77.86-32.331-131.569 87.473-69.723 198.226-111.511 318.799-111.511 67.79 0 132.452 13.292 191.668 37.226h-79.242v28.797h92.815z" />
<glyph unicode="&#xe96c;" glyph-name="uniE96C" d="M506.414 503.823c0 2.089-0.083 3.918-0.364 5.643h11.827c-0.218-1.725-0.364-3.554-0.364-5.643 0-31.853 31.739-31.853 46.974-31.853 15.163 0 46.901 0.073 46.901 31.957 0 31.957-31.739 32.030-46.901 32.030-10.798 0-29.722-0.145-39.949-11.245h-25.139c-10.205 11.089-29.151 11.245-39.876 11.245-15.235 0-46.901-0.073-46.901-31.957 0-31.957 31.666-31.957 46.901-31.957s46.891-0.073 46.891 31.78v0zM564.414 520.856c27.135 0 31.946-5.466 31.946-16.929 0-11.473-4.812-16.94-31.946-16.94-27.145 0-31.884 5.477-31.884 16.94-0.010 11.536 4.729 16.929 31.884 16.929v0zM427.577 503.927c0 11.463 4.801 16.929 31.946 16.929s31.874-5.466 31.874-16.929c0-11.473-4.729-16.94-31.874-16.94s-31.946 5.466-31.946 16.94v0z" />
<glyph unicode="&#xe96d;" glyph-name="agence2" horiz-adv-x="995" d="M716.34 395.749c0 10.388 8.335 18.661 18.817 18.661 10.201 0 18.537-8.273 18.537-18.661v-114.58c0-10.201-8.335-18.661-18.537-18.661h-185.368c-10.233 0-18.786 8.429-18.786 18.661v114.58c0 10.388 8.553 18.661 18.786 18.661 10.17 0 18.506-8.273 18.506-18.661v-95.856h148.045v95.856zM797.702 407.723v0-274.381h-600.485v274.381c0 10.201-8.273 18.537-18.506 18.537s-18.506-8.335-18.506-18.537v-293.042c0-10.201 8.304-18.723 18.506-18.723h637.838c10.201 0 18.506 8.491 18.506 18.723v293.042c0 10.201-8.304 18.537-18.506 18.537-10.544 0-18.848-8.335-18.848-18.537v0zM197.217 722.319v0c0-10.357-8.273-18.661-18.506-18.661s-18.506 8.304-18.506 18.661v59.031c0 10.357 8.304 18.661 18.506 18.661h637.838c10.201 0 18.506-8.304 18.506-18.661v-59.063c0-10.357-8.304-18.661-18.506-18.661-10.544 0-18.817 8.304-18.817 18.661v40.557h-600.516v-40.526zM94.488 676.070v0c0 17.075 13.716 30.978 30.946 30.978 16.919 0 30.978-13.871 30.978-30.978v-190.157c0-17.23-14.027-31.102-30.978-31.102-17.23 0-30.946 13.871-30.946 31.102v190.157zM200.763 676.070v0-190.157c0-17.23 13.716-31.102 30.946-31.102s30.946 13.871 30.946 31.102v190.157c0 17.075-13.716 30.978-30.946 30.978s-30.946-13.903-30.946-30.978v0zM307.007 676.070v0-190.157c0-17.23 14.027-31.102 30.946-31.102 17.23 0 30.946 13.871 30.946 31.102v190.157c0 17.075-13.685 30.978-30.946 30.978-16.919-0.031-30.946-13.903-30.946-30.978v0zM413.251 676.070v0-190.157c0-17.23 14.027-31.102 30.946-31.102 17.23 0 31.257 13.871 31.257 31.102v190.157c0 17.075-14.027 30.978-31.257 30.978-16.919-0.031-30.946-13.903-30.946-30.978v0zM519.807 676.070v0-190.157c0-17.23 13.716-31.102 30.946-31.102 16.951 0 30.978 13.871 30.978 31.102v190.157c0 17.075-14.027 30.978-30.978 30.978-17.23-0.031-30.946-13.903-30.946-30.978v0zM626.051 676.070v0-190.157c0-17.23 14.058-31.102 30.946-31.102 17.262 0 30.978 13.871 30.978 31.102v190.157c0 17.075-13.716 30.978-30.978 30.978-16.888-0.031-30.946-13.903-30.946-30.978v0zM732.326 676.070v0-190.157c0-17.23 14.027-31.102 30.915-31.102 17.262 0 30.946 13.871 30.946 31.102v190.157c0 17.075-13.685 30.978-30.946 30.978-16.888-0.031-30.915-13.903-30.915-30.978v0zM838.57 676.070v0c0 17.075 14.027 30.978 31.257 30.978 16.919 0 30.946-13.871 30.946-30.978v-190.157c0-17.23-14.027-31.102-30.946-31.102-17.23 0-31.257 13.871-31.257 31.102v190.157zM429.207 395.749v0c0 10.388 8.615 18.661 18.817 18.661 10.233 0 18.537-8.273 18.537-18.661v-212.799c0-10.201-8.304-18.723-18.537-18.723h-185.368c-10.233 0-18.506 8.491-18.506 18.723v212.799c0 10.388 8.304 18.661 18.506 18.661s18.506-8.273 18.506-18.661v-194.138h148.045v194.138z" />
<glyph unicode="&#xe96e;" glyph-name="agence-proximite2" horiz-adv-x="995" d="M334.688 884.827c114.237 91.657 300.849 64.381 382.678-57.632 69.326-90.849 48.395-212.24 21.523-314.565-56.574-200.95-143.318-392.506-241.164-576.661-107.239 216.158-219.020 436.205-260.448 676.125-21.491 100.055 13.716 211.431 97.411 272.733zM450.325 807.538c-104.347-30.76-129.197-184.372-40.401-246.887 76.511-65.438 208.756-18.661 227.417 80.181 31.413 104.565-86.961 207.916-187.016 166.706z" />
<glyph unicode="&#xe96f;" glyph-name="uniE96F" d="M1024.010 447.995c0-282.773-229.233-512.005-512.005-512.005s-512.005 229.233-512.005 512.005c0 282.773 229.233 512.005 512.005 512.005s512.005-229.233 512.005-512.005z" />
<glyph unicode="&#xe970;" glyph-name="uniE970" d="M922.715 392.832v37.829l-105.307 78.338 82.714-78.338h-776.389l82.849 78.338-105.286-78.349v-37.829h76.364v-227.792h-18.914v-21.45h-28.361v-21.024h763.118v21.024h-28.236v21.45h-18.893v227.803h76.343z" />
<glyph unicode="&#xe971;" glyph-name="uniE971" d="M509.106 790.821c0 1.081-0.042 2.027-0.197 2.92h6.121c-0.114-0.894-0.197-1.839-0.197-2.92 0-16.472 16.41-16.472 24.287-16.472 7.836 0 24.246 0.042 24.246 16.524 0 16.514-16.41 16.555-24.246 16.555-5.581 0-15.37-0.083-20.65-5.82h-13.001c-5.269 5.737-15.059 5.82-20.598 5.82-7.888 0-24.246-0.042-24.246-16.524 0-16.514 16.358-16.514 24.246-16.514 7.867 0 24.235-0.042 24.235 16.43v0zM539.088 799.624c14.030 0 16.524-2.827 16.524-8.75 0-5.934-2.494-8.761-16.524-8.761-14.040 0-16.482 2.827-16.482 8.761 0 5.965 2.442 8.75 16.482 8.75v0zM468.346 790.873c0 5.924 2.484 8.75 16.524 8.75 14.030 0 16.472-2.827 16.472-8.75 0-5.934-2.442-8.761-16.472-8.761s-16.524 2.827-16.524 8.761v0z" />
<glyph unicode="&#xe972;" glyph-name="uniE972" d="M579.847 498.887h-88.918l-53.667-49.624h149.485l-6.901 49.624z" />
<glyph unicode="&#xe973;" glyph-name="uniE973" d="M444.787 750.592c13.604-34.482 37.247-65.317 67.208-65.317s53.615 30.824 67.208 65.317c11.837-1.206 24.599 18.883 20.577 33.277-1.154 4.24-4.749 4.895-8.626 4.188 9.073 39.377 7.472 73.319-23.851 83.774-6.454 41.601-122.402 30.325-136.443-34.711-3.284-15.194-1.507-33.911 1.954-49.052-3.856 0.696-7.431 0.042-8.605-4.188-4.022-14.404 8.906-34.461 20.577-33.287zM449.276 825.813c53.854-18.104 77.019 3.575 99.622 19.070-6.194-9.405-13.78-20.296-17.21-23.871 15.246 8.522 24.62 16.275 29.66 24.131 5.238-24.474 19.59-42.526 17.594-54.883-7.046-39.044-30.918-95.195-66.948-95.195-27.686 0-47.639 36.083-56.545 58.187-4.406 10.954-8.22 23.487-10.455 35.989v0.021c-1.257 9.062 3.305 22.978 4.282 36.55z" />
<glyph unicode="&#xe974;" glyph-name="uniE974" d="M677.1 508.718c-3.014 44.563-9.374 93.22-21.211 117.061-13.437 27.207-53.791 30.408-80.781 40.884-9.031-36.103-25.877-79.513-42.609-112.914l-10.902 68.476 3.731 14.726-13.334 8.823-13.313-8.823 3.731-14.726-10.902-68.476c-7.586 15.131-15.183 32.331-22.084 49.967-0.811 2.068-1.6 4.147-2.39 6.235-0.343 0.883-0.665 1.777-0.998 2.66-0.655 1.715-1.278 3.409-1.891 5.113-0.385 1.039-0.748 2.078-1.133 3.128-0.551 1.538-1.091 3.097-1.621 4.645-0.405 1.133-0.79 2.255-1.174 3.388-0.488 1.434-0.977 2.879-1.465 4.313-0.405 1.195-0.79 2.38-1.174 3.565-0.447 1.372-0.873 2.723-1.32 4.084-0.364 1.226-0.769 2.453-1.133 3.679-0.405 1.299-0.79 2.598-1.174 3.887-0.364 1.247-0.748 2.484-1.091 3.71-0.364 1.257-0.727 2.505-1.081 3.762-0.343 1.237-0.707 2.473-1.039 3.689-0.343 1.299-0.665 2.557-0.998 3.824-0.281 1.081-0.592 2.193-0.852 3.274-0.042-0.010-0.083-0.031-0.125-0.042-1.517-0.592-3.107-1.164-4.708-1.715-0.104-0.031-0.218-0.073-0.322-0.114-1.621-0.551-3.284-1.081-4.957-1.6-26.106-8.096-58.842-13.427-70.679-37.413-11.847-23.851-18.197-72.508-21.211-117.061h330.21zM567.553 537.245h46.402v-14.404h-46.402v14.404z" />
<glyph unicode="&#xe975;" glyph-name="agenda2" horiz-adv-x="1034" d="M700.377 955.066h115.43v-163.149h-115.43v163.149zM218.189 955.066h115.461v-163.149h-115.461v163.149zM859.96 865.103v-117.34h-203.705v117.34h-278.483v-117.34h-203.737v117.34h-166.396v-928.721h1018.684v928.721h-166.364zM910.894 51.971h-787.793v578.676h787.793v-578.676zM350.746 332.936c-42.084-31.197-70.799-58.32-86.142-81.336-15.312-22.952-24.512-47.432-27.504-73.504h263.616v71.69h-137.268c8.086 7.895 15.121 14.293 21.074 19.228 5.985 4.839 17.795 13.434 35.495 25.69 29.796 21.010 50.298 40.365 61.567 57.874 11.269 17.54 16.936 35.94 16.936 55.264 0 18.082-4.902 34.508-14.739 49.12-9.932 14.612-23.398 25.435-40.525 32.502-17.222 7.035-41.32 10.569-72.199 10.569-29.701 0-52.812-3.725-69.621-11.142-16.713-7.449-29.733-18.082-38.965-31.961-9.2-13.943-15.471-33.203-18.941-58.001l87.989-7.099c2.419 17.859 7.258 30.274 14.325 37.373 7.163 7.035 16.331 10.569 27.504 10.569 10.792 0 19.737-3.406 26.868-10.251s10.664-15.057 10.664-24.735c0-8.882-3.565-18.336-10.76-28.237-7.163-9.9-23.589-24.448-49.374-43.612zM667.27 226.261c-11.269 0-20.501 3.406-27.759 10.251s-12.606 19.1-16.044 36.8l-87.83-11.619c5.73-19.769 13.943-36.131 24.703-49.12 10.728-12.988 24.353-22.952 40.938-29.733 16.617-6.717 39.347-10.123 68.093-10.123 29.478 0 53.258 4.616 71.372 13.752 18.145 9.136 31.993 22.125 41.671 39.060 9.646 16.967 14.421 34.572 14.421 53.035 0 14.675-2.897 27.282-8.722 37.85s-13.943 19.164-24.48 25.626c-6.43 4.043-15.79 7.576-28.014 10.569 15.089 8.34 26.39 18.018 33.839 29.16 7.481 11.078 11.237 23.493 11.237 37.118 0 23.302-9.168 42.657-27.6 58.065-18.4 15.408-48.26 23.143-89.517 23.143-35.972 0-63.763-7.099-83.437-21.201-19.61-14.102-32.821-34.381-39.729-60.866l83.055-14.93c2.292 15.726 6.653 26.74 13.147 32.948 6.462 6.271 14.866 9.391 25.244 9.391 10.028 0 17.954-2.865 23.716-8.627s8.627-13.434 8.627-23.080c0-10.060-3.82-18.782-11.524-26.104-7.704-7.385-17.286-11.015-28.778-11.015-2.738 0-6.526 0.318-11.46 1.051l-4.489-62.872c12.033 3.47 21.583 5.221 28.523 5.221 12.861 0 23.111-4.043 30.656-12.192 7.576-7.958 11.333-19.387 11.333-34.062 0-14.357-3.884-25.881-11.747-34.572-7.895-8.659-17.668-12.925-29.446-12.925z" />
<glyph unicode="&#xe976;" glyph-name="agenda-formations2" horiz-adv-x="828" d="M752.502 698.639h-75.26v56.439c0 10.391-8.405 18.821-18.796 18.821s-18.796-8.43-18.796-18.821v-56.439h-451.537v56.439c0 10.391-8.405 18.821-18.796 18.821-10.417 0-18.821-8.43-18.821-18.821v-56.439h-75.235c-41.565 0-75.26-33.67-75.26-75.26v-601.981c0-41.565 33.695-75.26 75.26-75.26h677.242c41.54 0 75.235 33.695 75.235 75.26v601.981c0 41.591-33.695 75.26-75.235 75.26zM790.094 21.397c0-20.783-16.835-37.617-37.617-37.617h-677.216c-20.783 0-37.643 16.809-37.643 37.617v451.486h752.477v-451.486zM790.094 510.526h-752.477v112.852c0 20.783 16.86 37.643 37.643 37.643h75.26v-56.439c0-10.417 8.405-18.821 18.821-18.821 10.391 0 18.796 8.405 18.796 18.821v56.439h451.512v-56.439c0-10.417 8.405-18.821 18.796-18.821s18.796 8.405 18.796 18.821v56.439h75.26c20.757 0 37.617-16.86 37.617-37.643v-112.852zM546.357 78.32h35.172v302.239h-26.921c-1.936-11.334-5.527-20.706-10.748-28.118-5.272-7.386-11.665-13.218-19.254-17.472s-16.045-7.182-25.443-8.736c-9.398-1.605-19.076-2.343-28.984-2.343v-29.009h76.177v-216.562zM367.108 120.751c-5.807-4.966-12.582-8.812-20.273-11.486-7.717-2.725-15.867-4.050-24.399-4.050-20.171 0-35.453 6.189-45.946 18.541-10.468 12.352-15.994 28.347-16.555 47.958h-35.223c-0.255-15.612 1.885-29.544 6.418-41.794 4.559-12.2 11.104-22.514 19.662-30.894 8.507-8.405 18.872-14.67 31.047-18.949 12.123-4.279 25.647-6.418 40.546-6.418 13.804 0 26.844 1.936 39.12 5.781s22.947 9.602 32.065 17.268c9.118 7.692 16.351 17.268 21.725 28.754 5.399 11.537 8.074 24.832 8.074 39.884 0 18.185-4.33 33.924-13.040 47.296-8.685 13.32-22.005 22.031-39.935 26.004v0.84c11.588 5.374 21.241 13.346 28.958 23.89 7.743 10.493 11.614 22.565 11.614 36.217 0 13.931-2.292 26.004-6.851 36.242s-10.85 18.592-18.821 25.138c-7.997 6.52-17.472 11.436-28.372 14.721s-22.718 4.865-35.376 4.865c-14.619 0-27.532-2.394-38.687-7.208-11.155-4.839-20.502-11.537-27.939-20.044-7.437-8.532-13.167-18.771-17.166-30.715-3.999-11.919-6.291-25.138-6.851-39.63h35.172c0 8.812 1.070 17.191 3.336 25.138 2.19 7.972 5.578 14.925 10.137 20.859 4.533 5.985 10.315 10.748 17.395 14.288 7.004 3.591 15.23 5.374 24.603 5.374 14.899 0 27.328-4.075 37.261-12.174 9.933-8.125 14.874-20.248 14.874-36.446 0-7.972-1.503-15.078-4.533-21.317-3.056-6.265-7.106-11.461-12.225-15.587-5.094-4.075-11.028-7.208-17.777-9.373-6.775-2.114-13.881-3.209-21.317-3.209h-11.588c-1.095 0-2.343 0.153-3.718 0.458v-30.69c6.622 0.84 13.651 1.299 21.088 1.299 8.838 0 17.039-1.197 24.628-3.642s14.135-6.113 19.636-11.104c5.527-4.966 9.958-11.104 13.244-18.312 3.311-7.259 4.966-15.561 4.966-24.959 0-9.041-1.732-17.268-5.17-24.476-3.413-7.259-7.997-13.371-13.804-18.338z" />
</font>
</defs>
</svg>
